<svg width="823" height="796" viewBox="0 0 823 796" fill="none" xmlns="http://www.w3.org/2000/svg">
<path d="M274.42 233.001L292.131 277.851L312.463 297.058L286.753 294.266L264.958 252.345L221.014 252.554L274.412 233.001M281.776 216.626L269.982 220.942L216.585 240.495L147.671 265.728L221.079 265.383L257.168 265.214L275.345 300.171L278.52 306.277L285.37 307.023L311.08 309.815L349.058 313.939L321.314 287.735L303.057 270.486L286.391 228.292L281.784 216.626H281.776Z" fill="url(#paint0_linear_255_345)"/>
<path d="M283.659 297.218L261.657 253.703L199.053 255.899L274.858 232.345L297.589 274.167L330.76 305.498L283.659 297.218Z" fill="#A763FF"/>
<path d="M583.169 300.525L539.595 286.87L585.147 270.519L622.755 298.375L691.556 264.493L622.369 336.357L583.169 300.525Z" fill="#A763FF"/>
<path d="M584.072 272.269L622.661 302.01L686.279 267.414L622.661 332.95L586.218 295.342L571.671 281.85L584.072 272.269ZM721.626 242.526L655.799 274.947L623.441 290.889L591.749 267.414L586.218 263.314L579.73 265.64L555.395 274.378L519.451 287.287L555.893 298.704L579.883 306.222L613.399 336.854L622.661 345.319L631.359 336.276L670.769 295.342L721.626 242.518V242.526Z" fill="url(#paint1_linear_255_345)"/>
<path d="M356.881 184.879L325.213 62.8943L334.965 64.507C336.694 64.7958 352.097 67.4275 359.413 71.8162C361.23 72.9073 364.607 74.9292 385.469 104.134C392.6 114.122 399.393 123.951 402.705 128.789L426.968 126.823L457.614 27.3676L478.581 10.4629L488.204 34.2997L493.591 133.779L520.314 142.524L562.039 87.0201L604.872 72.9474L553.404 206.156L356.865 184.887L356.881 184.879Z" fill="#A763FF"/>
<path d="M475.867 20.9004L481.84 35.7032L487.403 138.504L522.688 150.05L565.972 92.4752L593.99 83.2727L549.186 199.232L361.98 178.973L333.907 70.8367C333.907 70.8367 349.616 73.4281 356.095 77.3193C362.575 81.2026 399.5 135.487 399.5 135.487L431.835 132.872L463.188 31.13L475.867 20.9085M481.301 0.016062L467.779 10.9194L455.101 21.141L452.046 23.6041L450.888 27.3509L422.099 120.773L405.891 122.081C402.209 116.745 396.574 108.626 390.697 100.402C369.063 70.1145 365.397 67.9162 362.72 66.3115C354.753 61.5297 340.258 58.8741 336.005 58.1681L316.493 54.9508L321.454 74.054L349.527 182.191L351.754 190.775L360.589 191.73L547.795 211.989L557.628 213.056L561.189 203.845L605.992 87.886L615.761 62.5969L589.97 71.0694L561.953 80.272L558.11 81.5315L555.682 84.7568L517.937 134.966L499.776 129.021L494.687 34.989L494.574 32.8629L493.779 30.8893L487.805 16.0865L481.309 0L481.301 0.016062Z" fill="url(#paint2_linear_255_345)"/>
<path d="M549.177 199.232L593.98 83.2726L565.963 92.4752L522.687 150.05L487.394 138.504L481.83 35.7031L475.857 20.9004L475.688 21.0448L458.291 189.395L549.177 199.232Z" fill="url(#paint3_linear_255_345)"/>
<path d="M83.338 604.402C127.707 604.402 163.676 568.506 163.676 524.226C163.676 479.947 127.707 444.051 83.338 444.051C38.9686 444.051 3 479.947 3 524.226C3 568.506 38.9686 604.402 83.338 604.402Z" fill="#9058EC" stroke="url(#paint4_linear_255_345)" stroke-width="4.79695" stroke-miterlimit="10"/>
<path d="M3 524.226C3 539.927 7.5275 554.572 15.3472 566.945C27.4914 574.994 42.056 579.681 57.7292 579.681C100.094 579.681 134.437 545.408 134.437 503.129C134.437 482.234 126.041 463.299 112.442 449.481C103.42 445.976 93.6035 444.051 83.338 444.051C38.9673 444.051 3 479.945 3 524.226Z" fill="#A763FF"/>
<path d="M162.781 536.194C158.194 532.875 154.098 530.552 150.831 528.905C139.373 537.216 125.104 554.876 125.104 554.876C130.808 564.53 136.106 573.279 141.353 579.69C152.567 568.009 160.268 552.95 162.781 536.194Z" fill="#718E1C" stroke="url(#paint5_linear_255_345)" stroke-width="4.79695" stroke-linejoin="round"/>
<path d="M109.34 448.35C110.558 459.093 111.946 468.687 114.468 475.9C129.727 478.146 138.258 479.472 145.595 478.661C146.306 477.791 146.974 476.955 147.626 476.136C138.046 463.4 124.751 453.611 109.349 448.358L109.34 448.35Z" fill="#718E1C" stroke="url(#paint6_linear_255_345)" stroke-width="4.79695" stroke-linejoin="round"/>
<path d="M109.34 448.358C110.558 459.101 111.946 468.687 114.468 475.9C120.739 476.821 125.86 477.589 130.243 478.113C126.486 467.26 120.35 457.505 112.454 449.49C112.42 449.482 112.395 449.465 112.37 449.456C111.371 449.068 110.364 448.713 109.349 448.367L109.34 448.358Z" fill="#BDFF00"/>
<path d="M109.34 448.35C110.558 459.093 111.946 468.687 114.468 475.9C129.727 478.146 138.258 479.472 145.595 478.661C146.306 477.791 146.974 476.955 147.626 476.136C138.046 463.4 124.751 453.611 109.349 448.358L109.34 448.35Z" stroke="url(#paint7_linear_255_345)" stroke-width="4.79695" stroke-linejoin="round"/>
<path d="M83.338 604.402C127.707 604.402 163.676 568.506 163.676 524.226C163.676 479.947 127.707 444.051 83.338 444.051C38.9686 444.051 3 479.947 3 524.226C3 568.506 38.9686 604.402 83.338 604.402Z" stroke="url(#paint8_linear_255_345)" stroke-width="4.79695" stroke-miterlimit="10"/>
<path d="M74.7603 504.421C86.219 492.673 99.0997 482.664 112.446 473.18L116.474 478.61C110.338 483.551 104.296 488.813 98.5158 494.184C92.7949 499.531 87.2178 505.122 82.2078 511.067L74.7603 504.429V504.421Z" fill="url(#paint9_linear_255_345)"/>
<path d="M81.2744 538.17C100.417 547.984 125.12 554.867 125.12 554.867" stroke="url(#paint10_linear_255_345)" stroke-width="4.79695" stroke-linejoin="round"/>
<path d="M148.638 528.551C150.051 516.913 148.393 505.004 146.193 493.526C145.414 489.658 144.517 485.807 143.476 482.057L150.035 480.385C152.675 492.412 154.249 504.582 154.148 516.896C154.08 521.009 153.801 525.147 153.039 529.269L148.63 528.551H148.638Z" fill="url(#paint11_linear_255_345)"/>
<path d="M57.7188 553.795C58.4973 572.519 64.4465 593.431 76.3453 601.691" stroke="url(#paint12_linear_255_345)" stroke-width="4.79695" stroke-linejoin="round"/>
<path d="M33.9824 536.118C24.5971 540.755 12.1819 553.795 12.1819 553.795" stroke="url(#paint13_linear_255_345)" stroke-width="4.79695" stroke-linejoin="round"/>
<path d="M40.9016 505.68C32.3626 487.564 31.7362 471.281 36.0607 460.96" stroke="url(#paint14_linear_255_345)" stroke-width="4.79695" stroke-linejoin="round"/>
<path d="M41.9369 505.899C38.0525 518.036 34.6924 529.007 33.7869 537.79C45.1694 546.439 51.5083 551.346 57.7201 553.803C69.6188 547.604 75.4411 542.832 81.2636 538.179C82.1691 524.497 80.2311 514.294 78.4793 507.749C64.634 504.759 41.9369 505.899 41.9369 505.899Z" fill="#BDFF00"/>
<path d="M44.0038 508.576C44.2577 508.931 44.4693 508.998 44.4439 509.175C44.4185 509.294 44.2575 509.733 44.2237 509.868C41.3801 519.04 38.2321 528.702 37.1488 538.136L35.8286 535.104C43.2082 540.501 50.7148 547.131 58.9576 550.661L56.1477 550.805C60.2437 548.659 64.2467 546.379 68.0465 543.845C71.8717 541.329 75.4518 538.508 79.1416 535.543L77.8805 537.958C78.0074 528.136 76.738 518.322 73.6999 509.032C73.6829 508.998 77.4321 512.588 77.4321 512.579C74.7409 511.887 71.8803 511.371 68.9775 510.949C60.4893 509.775 51.798 509.361 43.2166 509.277C43.0812 509.285 42.506 509.268 42.3621 509.277C42.9206 509.26 43.5976 508.973 44.0038 508.576ZM39.8736 503.221C40.7369 502.588 41.9048 502.478 42.9542 502.427C51.9164 501.752 60.8617 501.422 69.8577 501.887C73.0313 502.072 76.2304 502.36 79.5309 502.917C81.435 503.238 82.865 504.682 83.2627 506.456C85.5646 517.005 85.878 527.925 84.6255 538.575C84.524 539.487 84.0499 540.281 83.3813 540.813C79.7254 543.752 75.8748 546.784 71.8127 549.462C67.7589 552.164 63.5444 554.563 59.2791 556.793C58.3821 557.266 57.3495 557.283 56.4779 556.936C53.9898 555.94 51.6797 554.698 49.5386 553.364C43.293 549.436 37.5634 544.85 31.741 540.475C30.7677 539.741 30.3022 538.575 30.4207 537.443C31.5716 527.452 34.5508 518.263 37.4621 508.812C38.0206 506.903 38.7481 504.826 39.8736 503.221Z" fill="url(#paint15_linear_255_345)"/>
<path d="M631.119 703.649C653.887 703.649 672.345 685.229 672.345 662.506C672.345 639.784 653.887 621.363 631.119 621.363C608.35 621.363 589.893 639.784 589.893 662.506C589.893 685.229 608.35 703.649 631.119 703.649Z" fill="#36B208" stroke="url(#paint16_linear_255_345)" stroke-width="4.79695" stroke-miterlimit="10"/>
<path d="M589.882 662.506C589.882 670.561 592.205 678.079 596.217 684.425C602.447 688.557 609.924 690.964 617.963 690.964C639.702 690.964 657.332 673.378 657.332 651.675C657.332 640.948 653.023 631.232 646.045 624.147C641.414 622.35 636.382 621.363 631.108 621.363C608.34 621.363 589.882 639.785 589.882 662.506Z" fill="#BFF816"/>
<path d="M631.119 703.649C653.887 703.649 672.345 685.229 672.345 662.506C672.345 639.784 653.887 621.363 631.119 621.363C608.35 621.363 589.893 639.784 589.893 662.506C589.893 685.229 608.35 703.649 631.119 703.649Z" stroke="url(#paint17_linear_255_345)" stroke-width="4.79695" stroke-miterlimit="10"/>
<path d="M605.117 630.582C631.116 650.335 610.037 677.453 594.915 677.453" stroke="url(#paint18_linear_255_345)" stroke-width="4.79695" stroke-linejoin="round"/>
<path d="M657.333 692.648C638.835 677.452 649.849 650.334 672.343 650.334" stroke="url(#paint19_linear_255_345)" stroke-width="4.79695" stroke-linejoin="round"/>
<path d="M309.68 214.572C316.216 194.354 328.749 175.467 339.321 170.316C349.893 165.165 388.032 156.909 449.678 161.98C515.304 167.38 554.384 185.649 566.37 195.405C577.111 204.142 575.72 239.757 575.72 239.757" fill="#6C3DB8"/>
<path d="M309.68 214.572C316.216 194.354 328.749 175.467 339.321 170.316C349.893 165.165 388.032 156.909 449.678 161.98C515.304 167.38 554.384 185.649 566.37 195.405C577.111 204.142 575.72 239.757 575.72 239.757" stroke="url(#paint20_linear_255_345)" stroke-width="4.79695" stroke-miterlimit="10"/>
<path d="M575.963 239.92C577.669 221.97 519.498 201.78 446.035 194.824C372.571 187.868 311.634 196.78 309.927 214.729C308.221 232.679 366.391 252.869 439.855 259.825C513.318 266.781 574.256 257.869 575.963 239.92Z" fill="url(#paint21_linear_255_345)" stroke="url(#paint22_linear_255_345)" stroke-width="4.79695" stroke-miterlimit="10"/>
<path d="M335.633 183.795C347.008 172.362 374.479 169.891 390.196 168.848C430.755 166.971 471.362 171.327 511.012 179.695C520.33 181.757 529.592 184.204 538.604 187.349C545.26 189.732 552.214 192.324 558.075 196.311C549.505 192.308 540.171 190.262 530.99 188.176C494.572 180.329 362.621 162.71 335.633 183.787V183.795Z" fill="white"/>
<path d="M566.688 405.869C568.496 386.852 506.861 365.461 429.021 358.09C351.181 350.72 286.614 360.161 284.806 379.178C282.998 398.195 344.634 419.586 422.474 426.957C500.313 434.327 564.88 424.886 566.688 405.869Z" fill="url(#paint23_linear_255_345)"/>
<path d="M339.305 570.094C332.673 633.381 314.054 675.326 286.398 717.825C337.826 727.204 465.766 739.215 497.843 736.455C475.718 674.091 464.294 624.186 463.925 580.949C439.059 565.97 339.305 570.094 339.305 570.094Z" fill="#A763FF" stroke="url(#paint24_linear_255_345)" stroke-width="4.79695" stroke-miterlimit="10"/>
<path d="M339.309 570.094C337.935 583.204 336.037 595.383 333.666 606.856C378.863 599.25 414.687 603.35 438.436 610.571C440.156 638.781 447.777 692.006 460.062 722.671C462.546 728.865 467.771 733.398 474.533 736.68C484.437 736.96 492.485 736.912 497.847 736.455C475.722 674.091 464.298 624.186 463.929 580.949C439.063 565.97 339.309 570.094 339.309 570.094Z" fill="#6C3DB8"/>
<path d="M464.217 591.1L416.382 589.295C411.88 600.335 405.497 654.973 413.85 686.608C427.501 688.566 465.648 698.073 486.792 703.465C473.326 660.549 465.752 623.883 464.217 591.108V591.1Z" fill="#BFF816"/>
<path d="M464.217 591.1L416.382 589.295C415.241 592.087 413.979 597.687 412.869 604.996C422.5 606.384 431.046 608.326 438.426 610.564C439.697 631.36 444.175 665.74 451.362 694.663C464.089 697.712 477.193 701.01 486.792 703.457C473.326 660.541 465.753 623.875 464.217 591.1Z" fill="#36B208"/>
<path d="M339.305 570.094C332.673 633.381 314.054 675.326 286.398 717.825C337.826 727.204 465.766 739.215 497.843 736.455C475.718 674.091 464.294 624.186 463.925 580.949C439.059 565.97 339.305 570.094 339.305 570.094Z" stroke="url(#paint25_linear_255_345)" stroke-width="4.79695" stroke-miterlimit="10"/>
<path d="M566.892 394.29C561.875 394.29 556.055 392.765 550.435 390.029C546.005 392.661 540.329 394.073 533.978 394.073C523.672 394.073 513.687 390.358 507.609 384.429C501.379 383.667 493.902 380.658 490.051 375.692C489.223 374.625 488.765 373.333 488.717 372.025C487.39 372.13 486.055 372.186 484.697 372.186C474.503 372.186 465.274 369.033 460.241 363.906C453.287 369.787 443.575 373.036 432.441 373.036C419.119 373.036 405.058 368.439 393.867 360.424C385.137 354.174 379.501 343.952 377.572 330.866C375.12 314.258 379.115 294.144 386.873 284.083C388.947 281.387 391.391 279.021 394.141 276.991C393.924 276.212 393.843 275.386 393.931 274.56C394.478 269.465 397.67 256.347 415.461 244.625C419.786 241.777 424.457 239.763 429.562 238.56C429.763 237.894 430.069 237.26 430.495 236.674C439.732 223.797 455.956 215.798 472.823 215.798C488.644 215.798 502.536 222.955 511.211 235.503C511.444 235.479 511.677 235.463 511.918 235.463C511.942 235.463 511.966 235.463 511.99 235.463C512.899 235.471 521.035 235.751 527.008 242.443C530.32 246.15 532.202 250.923 532.652 256.692C546.673 257.855 560.774 267.539 562.735 287.164C573.524 291.168 584.241 299.383 585.961 312.164C586.669 317.436 585.583 322.378 583.035 326.245C587.738 331.845 592.915 340.935 590.721 354.39C589.772 360.207 587.714 364.796 585.342 368.359C585.471 368.776 585.559 369.209 585.608 369.65C586.428 377.866 584.844 384.253 580.88 388.617C577.52 392.324 572.688 394.274 566.892 394.274V394.29Z" fill="url(#paint26_linear_255_345)"/>
<path d="M472.828 222.225C485.787 222.225 498.667 227.737 506.762 240.421C508.491 243.133 511.184 251.461 505.838 266.36C513.765 254.951 511.924 241.89 511.924 241.89C511.924 241.89 528.332 242.074 526.121 263.231C527.327 263.079 528.549 262.999 529.763 262.999C543.205 262.999 556.534 272.362 556.534 291.93C582.156 298.734 584.182 320.26 574.044 326.149C578.836 330.746 586.763 338.657 584.367 353.38C581.971 368.102 571.094 373.069 571.094 373.069C571.094 373.069 571.311 373.101 571.713 373.101C572.911 373.101 575.749 372.788 579.206 370.309C580.508 383.298 574.599 387.879 566.889 387.879C561.495 387.879 555.208 385.633 549.894 382.456C546.171 386.018 540.238 387.671 533.976 387.671C525.02 387.671 515.397 384.285 510.629 378.22C505.838 378.22 498.281 375.829 495.146 371.777C499.567 371.223 505.838 369.017 515.421 362.213C511.731 367.733 504.544 372.884 504.544 372.884C504.544 372.884 512.1 370.862 520.027 366.081C526.443 373.815 533.702 374.882 537.232 374.882C538.582 374.882 539.386 374.722 539.386 374.722C539.386 374.722 530.905 370.493 526.853 366.626C529.932 367.268 534.265 367.862 538.88 367.862C547.514 367.862 557.121 365.776 561.326 357.977C556.084 361.628 548.214 363.633 539.965 363.633C529.94 363.633 519.368 360.673 512.285 354.11C505.299 362.438 494.478 365.768 484.694 365.768C475.899 365.768 467.932 363.072 464.354 358.892C468.044 354.11 472.651 346.014 472.651 333.875C472.651 321.736 465.834 314.186 465.834 314.186C465.834 314.186 466.67 314.122 468.045 314.122C471.759 314.122 479.404 314.612 485.192 318.238C479.292 321.367 476.526 329.278 476.526 329.278C476.526 329.278 488.063 318.054 499.31 318.054C500.701 318.054 502.084 318.222 503.434 318.607C515.783 322.105 517.817 326.149 523.894 336.451C522.6 324.857 516.522 320.629 516.522 320.629C516.522 320.629 516.554 320.629 516.619 320.629C517.576 320.629 525.341 320.308 535.688 310.327C530.117 314.499 522.729 316.192 515.847 316.192C508.965 316.192 502.759 314.539 499.189 311.98C503.064 309.774 509.697 305.538 513.017 294.289C506.256 305.449 496.705 308.482 486.728 308.482C479.3 308.482 471.638 306.805 464.716 305.546C468.221 302.048 475.594 287.333 468.953 279.422C470.979 288.801 467.908 297.819 460.536 303.219C458.888 301.165 451.403 297.057 439.794 297.057C437.519 297.057 435.091 297.217 432.51 297.578C467.908 301.751 472.33 336.338 460.777 353.749C454.957 362.526 444.272 366.626 432.43 366.626C420.588 366.626 407.974 362.647 397.611 355.217C376.717 340.254 382.127 300.764 391.96 288.007C399.091 278.748 410.627 274.921 422.807 274.921C427.413 274.921 432.108 275.467 436.699 276.477C430.894 272.009 425.508 270.163 419.808 270.163C414.108 270.163 407.693 272.137 400.329 275.258C401.068 268.39 405.98 258.578 419.012 249.993C426.063 245.347 433.756 243.647 441.828 243.647C448.669 243.647 455.792 244.874 463.012 246.559C457.416 243.117 447.665 240.245 439.223 240.245C438.025 240.245 436.859 240.301 435.734 240.421C443.886 229.052 458.413 222.225 472.836 222.225M472.828 209.388C453.919 209.388 435.694 218.414 425.267 232.944C425.235 232.992 425.202 233.04 425.162 233.088C420.451 234.492 416.054 236.546 411.921 239.274C397.788 248.589 388.905 261.201 387.538 273.886C387.538 273.95 387.522 274.014 387.522 274.079C385.415 275.916 383.494 277.954 381.782 280.184C372.938 291.657 368.492 313.368 371.218 331.814C373.412 346.656 379.948 358.362 390.126 365.655C402.386 374.433 417.806 379.471 432.446 379.471C442.994 379.471 452.496 376.848 460.053 372.026C466.292 376.166 474.854 378.548 484.252 378.621C484.469 378.966 484.71 379.303 484.96 379.632C489.655 385.697 497.573 389.211 504.672 390.495C513.113 397.788 524.883 400.508 533.976 400.508C540.118 400.508 545.786 399.353 550.618 397.17C555.184 399.072 560.868 400.725 566.889 400.725C572.235 400.725 579.825 399.377 585.645 392.95C590.75 387.326 592.905 379.527 592.069 369.771C594.288 365.904 596.129 361.178 597.061 355.45C599.248 342.035 595.148 332.207 590.565 325.58C592.342 321.271 593.001 316.361 592.326 311.33C591.369 304.206 587.953 297.506 582.438 291.954C578.619 288.103 573.972 284.966 568.554 282.575C566.584 272.025 561.495 265.085 557.073 260.864C551.872 255.898 545.376 252.536 538.261 251.052C537.256 246.607 535.302 242.114 531.805 238.199C525.912 231.596 518.54 229.759 514.569 229.253C504.624 216.568 489.679 209.396 472.82 209.396L472.828 209.388Z" fill="url(#paint27_linear_255_345)"/>
<path d="M330.715 369.251C330.128 369.251 329.542 369.251 328.963 369.235C317.772 369.066 298.123 363.121 289.883 347.404C282.238 332.833 288.203 316.948 295.382 305.346C290.366 290.238 291.853 274.408 299.603 261.451C306.991 249.095 319.034 241.008 333.738 238.425C340.548 228.516 352.02 224.898 361.016 224.898C362.471 224.898 363.798 224.994 364.979 225.194C368.155 218.92 372.858 211.996 379.732 206.284C385.56 201.43 391.815 198.975 398.311 198.975C407.251 198.975 414.518 203.853 417.919 207.688C420.154 206.532 422.493 205.754 424.889 205.377C427.108 205.024 429.278 204.84 431.345 204.84C441.965 204.84 450.527 209.469 456.774 218.591C457.899 220.228 458.196 222.29 457.585 224.183C456.974 226.069 455.527 227.569 453.662 228.251C443.05 232.102 432.004 244.121 431.891 244.241C430.597 245.661 428.853 246.424 427.1 246.424C426.417 246.424 425.733 246.311 425.074 246.071C424.632 246.64 424.085 247.138 423.458 247.539C423.265 247.659 403.914 260.111 392.997 275.09C392.217 276.166 391.116 276.968 389.862 277.393C388.929 277.706 388.012 277.979 387.104 278.196C387.104 279.455 386.726 280.707 385.994 281.782C378.1 293.375 376.178 302.193 376.162 302.281C376.034 302.883 375.817 303.493 375.527 304.03C375.423 304.231 374.643 305.635 373.148 307.584C373.429 307.665 373.702 307.769 373.975 307.889C376.452 308.997 377.963 311.532 377.762 314.228C376.307 333.596 379.257 347.195 381.082 349.859C382.119 351.375 382.457 353.26 382.015 355.042C381.565 356.823 380.375 358.323 378.743 359.173C366.804 365.375 348.41 369.235 330.731 369.235L330.715 369.251Z" fill="url(#paint28_linear_255_345)"/>
<path d="M398.302 205.402C406.767 205.402 412.877 211.162 413.85 212.952C407.949 220.557 407.459 229.383 407.459 229.383C407.459 229.383 413.601 213.682 425.893 211.724C427.806 211.419 429.623 211.275 431.328 211.275C440.573 211.275 446.892 215.575 451.45 222.234C439.158 226.695 427.115 239.934 427.115 239.934C427.115 239.934 422.814 236.933 415.53 236.933C413.271 236.933 410.731 237.222 407.941 237.976C416.792 239.444 419.984 242.148 419.984 242.148C419.984 242.148 399.58 255.145 387.786 271.336C385.149 272.227 382.81 272.62 380.736 272.62C370.228 272.62 366.53 262.647 365.911 257.111C363.21 272.564 369.601 278.204 380.655 278.204C371.804 291.202 369.842 301.014 369.842 301.014C369.842 301.014 362.1 315.36 344.84 315.36C340.571 315.36 335.723 314.485 330.264 312.295C335.626 319.467 342.822 322.019 349.792 322.019C358.796 322.019 367.431 317.775 371.306 313.771C369.834 333.396 372.536 348.848 375.727 353.51C364.327 359.439 346.721 362.841 330.69 362.841C330.136 362.841 329.581 362.841 329.034 362.825C312.57 362.576 274.961 347.123 302.488 306.165C291.426 278.204 306.669 248.029 337.637 244.354C343.176 233.916 354.527 231.333 360.991 231.333C362.277 231.333 363.37 231.437 364.182 231.597C363.692 240.182 365.163 243.865 365.163 243.865C365.163 243.865 368.484 223.991 383.815 211.235C389 206.918 393.944 205.41 398.278 205.41M398.302 192.565C390.375 192.565 382.521 195.605 375.607 201.366C369.368 206.557 364.745 212.639 361.345 218.488C361.232 218.488 361.127 218.488 361.015 218.488C350.99 218.488 338.352 222.315 330.055 232.616C323.246 234.109 316.943 236.708 311.251 240.383C304.184 244.948 298.404 250.933 294.079 258.162C285.855 271.914 283.885 288.49 288.395 304.496C276.256 325.565 279.222 340.937 284.182 350.381C293.733 368.577 316.139 375.461 328.865 375.654C329.484 375.662 330.095 375.67 330.714 375.67C349.366 375.67 368.902 371.538 381.7 364.887C384.964 363.194 387.344 360.177 388.237 356.615C389.105 353.149 388.486 349.474 386.532 346.489C385.391 344.106 382.818 332.585 384.16 314.726C384.394 311.581 383.469 308.548 381.668 306.125C382.03 305.323 382.287 304.536 382.456 303.597C382.641 302.835 384.587 295.285 391.308 285.409C391.766 284.735 392.16 284.021 392.473 283.283C394.757 282.392 396.742 280.868 398.197 278.878C406.703 267.204 421.809 256.213 426.914 252.955C427.011 252.891 427.107 252.827 427.203 252.763C430.693 252.739 434.15 251.302 436.642 248.55C439.231 245.726 448.347 237.005 455.84 234.285C459.578 232.929 462.472 229.929 463.694 226.15C464.908 222.371 464.313 218.247 462.07 214.973C454.65 204.15 444.022 198.422 431.328 198.422C428.924 198.422 426.416 198.63 423.859 199.039C422.259 199.296 420.732 199.673 419.277 200.155C414.252 196.071 406.84 192.557 398.302 192.557V192.565Z" fill="url(#paint29_linear_255_345)"/>
<path d="M506.753 240.414C489.653 213.625 451.844 217.957 436.36 239.548C445.452 238.569 456.611 242.621 463.002 246.544C447.269 242.861 432.035 241.393 419.003 249.978C405.979 258.563 401.059 268.375 400.319 275.243C414.822 269.113 424.896 267.396 436.698 276.47C419.984 272.788 401.798 275.243 391.966 288C382.134 300.757 376.723 340.247 397.618 355.21C418.512 370.173 449.231 371.152 460.784 353.742C472.336 336.323 467.915 301.735 432.517 297.571C448.25 295.365 458.573 300.757 460.534 303.212C467.907 297.812 470.977 288.802 468.951 279.415C475.584 287.326 468.212 302.04 464.715 305.539C480.938 308.483 501.214 313.754 513.016 294.282C509.695 305.539 503.063 309.767 499.188 311.973C506.375 317.124 524.625 318.592 535.687 310.32C524.625 320.991 516.513 320.622 516.513 320.622C516.513 320.622 522.599 324.85 523.885 336.444C517.799 326.142 515.773 322.09 503.425 318.6C491.076 315.102 476.509 329.271 476.509 329.271C476.509 329.271 479.274 321.36 485.175 318.231C477.248 313.265 465.816 314.187 465.816 314.187C465.816 314.187 472.634 321.729 472.634 333.876C472.634 346.023 468.027 354.111 464.337 358.893C471.894 367.726 498.995 369.932 512.268 354.111C525.171 366.065 549.691 366.065 561.3 357.978C554.845 369.933 535.679 368.464 526.827 366.627C530.879 370.486 539.361 374.722 539.361 374.722C539.361 374.722 528.877 376.768 520.002 366.073C512.075 370.855 504.518 372.877 504.518 372.877C504.518 372.877 511.705 367.726 515.395 362.206C505.812 369.01 499.542 371.224 495.12 371.77C498.255 375.813 505.812 378.212 510.604 378.212C518.715 388.514 540.84 391.09 549.868 382.441C562.772 390.167 581.391 392.373 579.18 370.302C574.574 373.615 571.068 373.062 571.068 373.062C571.068 373.062 581.946 368.095 584.341 353.373C586.737 338.658 578.81 330.747 574.019 326.142C584.156 320.253 582.13 298.727 556.509 291.923C556.509 270.581 540.655 261.387 526.096 263.224C528.307 242.067 511.898 241.883 511.898 241.883C511.898 241.883 513.739 254.944 505.812 266.353C511.158 251.454 508.465 243.126 506.737 240.414H506.753Z" fill="#BFF816"/>
<path d="M494.718 284.117C511.392 274.738 517.019 255.234 514.583 242.285C513.008 241.907 511.922 241.891 511.922 241.891C511.922 241.891 513.763 254.953 505.836 266.362C511.183 251.463 508.489 243.135 506.761 240.423C501.696 232.496 494.822 227.289 487.249 224.457C502.5 240.359 503.167 267.293 494.718 284.125V284.117Z" fill="#36B208"/>
<path d="M574.042 326.15C584.18 320.261 582.154 298.735 556.532 291.931C556.532 277.585 549.369 268.736 540.252 265.029C549.779 273.454 548.051 282.913 543.814 294.137C554.506 294.322 560.407 298.735 561.693 305.049C562.988 311.363 558.743 323.39 551.001 323.021C553.397 326.15 562.803 332.215 569.99 330.563C577.362 338.473 571.284 357.424 555.431 352.273C539.577 347.122 542.769 328.172 542.769 328.172C542.769 328.172 536.442 341.972 527.968 341.787C533.226 349.16 521.151 350.982 509.719 335.168C505.466 347.09 480.407 352.097 480.592 336.46C480.664 330.209 482.947 325.668 485.665 322.467C480.327 325.612 476.54 329.287 476.54 329.287C476.54 329.287 479.305 321.376 485.206 318.247C477.279 313.281 465.848 314.203 465.848 314.203C465.848 314.203 472.665 321.745 472.665 333.892C472.665 346.039 468.058 354.127 464.368 358.908C471.925 367.742 499.026 369.948 512.299 354.127C525.203 366.081 549.723 366.081 561.332 357.994C554.876 369.948 535.71 368.48 526.859 366.643C530.91 370.502 539.392 374.738 539.392 374.738C539.392 374.738 528.909 376.784 520.033 366.089C512.106 370.871 504.549 372.893 504.549 372.893C504.549 372.893 511.737 367.742 515.427 362.222C505.844 369.026 499.573 371.24 495.151 371.786C498.286 375.829 505.844 378.228 510.635 378.228C518.747 388.53 540.871 391.105 549.9 382.456C562.803 390.183 581.422 392.389 579.211 370.318C574.605 373.631 571.1 373.077 571.1 373.077C571.1 373.077 581.977 368.111 584.373 353.389C586.768 338.674 578.842 330.763 574.05 326.158L574.042 326.15Z" fill="#36B208"/>
<path d="M383.423 324.785C384.171 336.78 388.231 348.478 397.629 355.209C418.523 370.173 449.242 371.151 460.795 353.741C468.77 341.722 469.123 321.52 456.944 308.787C459.155 314.123 459.275 322.13 451.453 332.391C440.535 346.729 401.359 354.495 383.415 324.785H383.423Z" fill="#36B208"/>
<path d="M375.745 353.502C363.943 359.631 345.509 363.065 329.044 362.825C312.58 362.576 274.971 347.123 302.498 306.165C291.436 278.204 306.678 248.029 337.646 244.354C344.279 231.846 359.272 230.618 364.192 231.597C363.702 240.182 365.173 243.865 365.173 243.865C365.173 243.865 368.494 223.991 383.825 211.235C399.156 198.478 412.365 210.256 413.836 212.959C407.935 220.565 407.445 229.391 407.445 229.391C407.445 229.391 413.587 213.69 425.879 211.732C438.171 209.766 446.034 213.16 451.444 221.055C439.152 225.516 427.768 239.243 427.768 239.243C427.768 239.243 419.737 234.79 407.943 237.976C416.795 239.444 419.496 241.041 419.496 241.041C419.496 241.041 400.941 246.681 387.788 271.336C371.814 276.736 366.653 263.73 365.913 257.111C363.212 272.564 369.603 278.204 380.657 278.204C371.806 291.202 369.844 301.014 369.844 301.014C369.844 301.014 357.801 323.334 330.274 312.295C342.566 328.726 364.442 320.879 371.323 313.763C369.852 333.388 372.554 348.84 375.745 353.502Z" fill="#BFF816"/>
<path d="M433.3 211.202C441.629 220.172 407.622 238 396.881 234.895C399.462 243.544 398.176 248.325 388.215 259.911C380.417 268.985 372.063 266.979 368.799 265.688C371.862 270.75 377.643 274.746 387.781 271.32C400.933 246.665 419.488 241.024 419.488 241.024C419.488 241.024 416.787 239.428 407.935 237.959C419.737 234.774 427.761 239.227 427.761 239.227C427.761 239.227 439.152 225.491 451.437 221.039C447.208 214.869 441.46 211.459 433.284 211.202H433.3Z" fill="#36B208"/>
<path d="M292.914 335.794C295.165 354.849 317.402 362.64 329.051 362.816C345.516 363.065 363.95 359.631 375.752 353.493C372.561 348.832 369.851 333.379 371.331 313.754C364.449 320.871 342.574 328.718 330.281 312.286C332.613 317.373 340.853 327.065 359.103 326.327C351.554 357.104 315.987 353.646 292.914 335.794Z" fill="#36B208"/>
<path d="M369.856 301.006C369.856 301.006 371.826 291.194 380.669 278.196C377.582 278.196 374.865 277.755 372.598 276.784C362.942 300.685 340.239 313.964 330.278 312.287C357.805 323.327 369.848 301.006 369.848 301.006H369.856Z" fill="#36B208"/>
<path d="M610.548 475.943C603.746 533.549 509.701 576.217 402.994 564.776C296.287 553.335 217.364 495.568 224.125 434.503C228.828 392.037 318.91 366.86 425.617 378.309C532.324 389.75 615.548 433.516 610.54 475.951L610.548 475.943Z" fill="#A763FF" stroke="url(#paint30_linear_255_345)" stroke-width="4.79695" stroke-miterlimit="10"/>
<path d="M235.225 451.569C229.694 426.561 256.095 410.531 275.985 402.548C340.678 376.946 412.486 386.838 478.562 401.561C411.891 394.228 342.471 384.415 277.77 407.201C258.258 414.229 232.645 427.227 235.225 451.561V451.569Z" fill="white"/>
<path d="M234.785 413.732L274.492 466.701L327.954 436.895L321.683 423.648L335.696 420.68L341.958 376.833" fill="#6C3DB8"/>
<path d="M564.821 418.153L558.727 430.829C558.727 430.829 553.196 477.187 524.439 490.433C494.573 482.154 434.945 468.169 363.506 469.854C320.544 470.865 265.385 479.233 248.036 497.823C267.732 519.566 298.307 538.099 335.77 550.471L438.787 566.622C529.946 566.301 604.504 526.987 610.525 475.936C612.905 455.765 595.339 435.298 564.805 418.145L564.821 418.153Z" fill="#6C3DB8"/>
<path d="M610.62 469.444C607.991 440.232 565.19 411.204 503.286 393.296C497.819 392.558 494.588 392.357 494.588 392.357H492.915C487.947 425.132 469.488 455.115 448.69 481.639C435.594 498.344 428.294 500.069 428.294 500.069C428.294 500.069 530.13 509.544 540.195 547.357C584.79 527.652 608.168 505.765 610.62 469.436V469.444Z" fill="#BFF816"/>
<path d="M564.836 418.153L558.742 430.829C558.742 430.829 553.211 477.187 524.454 490.434C508.954 486.133 483.766 479.466 454.004 474.708C452.26 477.043 450.483 479.354 448.69 481.64C435.594 498.344 428.294 500.069 428.294 500.069C428.294 500.069 530.129 509.545 540.195 547.358C584.789 527.653 608.168 505.766 610.62 469.437C608.996 451.417 592.081 433.461 564.828 418.145L564.836 418.153Z" fill="#36B208"/>
<path d="M610.548 475.943C603.746 533.549 509.701 576.217 402.994 564.776C296.287 553.335 217.364 495.568 224.125 434.503C228.828 392.037 318.91 366.86 425.617 378.309C532.324 389.75 615.548 433.516 610.54 475.951L610.548 475.943Z" stroke="url(#paint31_linear_255_345)" stroke-width="4.79695" stroke-miterlimit="10"/>
<path d="M578.775 316.579C574.378 325.372 563.042 327.001 555.429 325.773C572.754 328.838 576.074 325.893 579.515 323.318C582.956 320.743 579.652 313.626 579.652 313.626C579.652 313.626 579.419 315.295 578.775 316.571V316.579Z" fill="url(#paint32_linear_255_345)"/>
<path d="M550.61 534.251C552.418 515.234 490.782 493.843 412.943 486.472C335.103 479.102 270.536 488.543 268.728 507.56C266.92 526.577 328.556 547.968 406.396 555.339C484.235 562.709 548.802 553.268 550.61 534.251Z" fill="url(#paint33_linear_255_345)"/>
<path d="M510.1 549.243C506.45 580.156 458.679 588.139 401.423 582.002C344.166 575.864 299.129 559.769 302.755 527.011C305.279 504.225 352.157 495.889 409.414 502.027C466.67 508.164 512.785 526.481 510.1 549.251V549.243Z" fill="#6C3DB8" stroke="url(#paint34_linear_255_345)" stroke-width="4.79695" stroke-miterlimit="10"/>
<path d="M507.182 558.927C508.693 555.99 509.682 552.765 510.1 549.243C511.426 537.994 500.846 527.845 482.903 519.702C463.881 513.267 446.066 508.622 432.27 509.929C432.27 529.065 422.133 549.484 418.812 554.45C442.408 565.49 477.621 573.954 477.621 573.954L507.182 558.919V558.927Z" fill="#36B208"/>
<path d="M321.668 541.838C339.668 529.835 362.54 528.591 383.571 528.848C408.212 529.065 432.845 533.325 455.765 542.383C461.843 544.798 467.865 547.39 473.565 550.591C462.703 547.293 451.738 544.445 440.667 542.046C420.231 537.497 399.409 535.523 378.547 534.865C359.381 534.288 339.684 534.392 321.66 541.838H321.668Z" fill="white"/>
<path d="M510.1 549.243C506.45 580.156 458.679 588.139 401.423 582.002C344.166 575.864 299.129 559.769 302.755 527.011C305.279 504.225 352.157 495.889 409.414 502.027C466.67 508.164 512.785 526.481 510.1 549.251V549.243Z" stroke="url(#paint35_linear_255_345)" stroke-width="4.79695" stroke-miterlimit="10"/>
<path d="M480.504 569.184C481.52 558.491 446.866 546.464 403.102 542.32C359.338 538.176 323.036 543.485 322.019 554.178C321.003 564.871 355.656 576.898 399.421 581.042C443.185 585.186 479.487 579.877 480.504 569.184Z" fill="url(#paint36_linear_255_345)"/>
<path d="M329.109 563.958C365.447 553.167 445.568 557.459 481.545 583.92C503.316 599.926 480.25 631.168 468.215 629.331C463.971 611.672 462.668 602.229 462.668 602.229C462.668 602.229 429.988 588.493 395.298 587.017C360.608 585.548 338.548 591.678 338.548 591.678C338.548 591.678 333.708 607.251 331.232 616.454C311.406 614.985 301.309 572.222 329.109 563.958Z" fill="#A763FF" stroke="url(#paint37_linear_255_345)" stroke-width="4.79695" stroke-miterlimit="10"/>
<path d="M429.399 581.006C387.079 572.814 338.803 575.928 312.072 590.313C312.819 603.102 320.634 615.666 331.222 616.453C333.698 607.258 338.537 591.677 338.537 591.677C338.537 591.677 360.598 585.547 395.288 587.016C416.045 587.898 436.08 593.169 448.83 597.261C449.272 590.056 444.352 583.903 429.407 581.006H429.399Z" fill="#6C3DB8"/>
<path d="M468.211 629.331C480.246 631.168 503.311 599.926 481.54 583.92C474.401 578.672 465.525 574.3 455.597 570.737L424.814 566.381C424.814 566.381 426.236 573.409 422.667 579.515C420.336 583.51 416.212 586.944 413.631 588.854C440.667 592.994 462.655 602.228 462.655 602.228L467.921 628.175C468.009 628.561 468.106 628.938 468.194 629.331H468.211Z" fill="#BFF816"/>
<path d="M326.106 576.554C333.422 573.441 341.461 571.58 349.323 570.36C359.895 568.748 370.676 568.202 381.361 568.346C405.342 568.804 429.653 572.31 452.091 580.967C431.486 575.744 410.423 572.799 389.231 571.796C378.692 571.243 368.023 571.267 357.492 571.837C346.96 572.503 336.284 573.69 326.106 576.562V576.554Z" fill="white"/>
<path d="M415.617 587.314L414.154 588.934C440.966 593.106 462.672 602.229 462.672 602.229L467.938 628.176C468.026 628.561 468.122 628.938 468.211 629.331C480.246 631.168 503.311 599.926 481.54 583.92C476.942 580.542 471.612 577.525 465.759 574.854C465.687 575.046 465.63 575.247 465.606 575.463C464.762 584.265 457.599 587.506 457.599 587.506C457.599 587.506 452.188 586.038 422.676 579.515C420.875 582.596 418.013 585.34 415.609 587.314H415.617Z" fill="#36B208"/>
<path d="M329.109 563.958C365.447 553.167 445.568 557.459 481.545 583.92C503.316 599.926 480.25 631.168 468.215 629.331C463.971 611.672 462.668 602.229 462.668 602.229C462.668 602.229 429.988 588.493 395.298 587.017C360.608 585.548 338.548 591.678 338.548 591.678C338.548 591.678 333.708 607.251 331.232 616.454C311.406 614.985 301.309 572.222 329.109 563.958Z" stroke="url(#paint38_linear_255_345)" stroke-width="4.79695" stroke-miterlimit="10"/>
<path d="M259.097 737.731C265.633 717.513 278.167 698.626 288.738 693.475C299.31 688.324 337.449 680.069 399.095 685.139C464.721 690.539 503.801 708.808 515.787 718.564C526.528 727.301 525.138 762.916 525.138 762.916" fill="#6C3DB8"/>
<path d="M259.097 737.731C265.633 717.513 278.167 698.626 288.738 693.475C299.31 688.324 337.449 680.069 399.095 685.139C464.721 690.539 503.801 708.808 515.787 718.564C526.528 727.301 525.138 762.916 525.138 762.916" stroke="url(#paint39_linear_255_345)" stroke-width="4.79695" stroke-miterlimit="10"/>
<path d="M525.387 763.12C527.094 745.17 468.923 724.98 395.459 718.024C321.996 711.068 261.058 719.98 259.352 737.929C257.645 755.879 315.816 776.069 389.28 783.025C462.743 789.981 523.681 781.069 525.387 763.12Z" fill="black" stroke="url(#paint40_linear_255_345)" stroke-width="4.79695" stroke-miterlimit="10"/>
<path d="M502.896 388.843C497.936 432.457 470.739 470.816 437.07 497.188L432.849 492.342C447.296 478.173 459.749 461.894 468.697 443.858C477.315 426.488 482.943 406.999 482.943 387.832L502.896 388.843Z" fill="url(#paint41_linear_255_345)"/>
<path d="M439.243 507.202C438.27 514.735 436.622 521.988 434.516 529.113C432.297 536.35 429.836 543.33 425.881 549.933L420.246 546.836C421.612 543.86 422.681 540.57 423.582 537.232C426.203 527.251 427.666 516.629 427.819 506.407L439.243 507.202Z" fill="url(#paint42_linear_255_345)"/>
<path d="M409.867 557.243C424.78 556.737 434.251 566.838 426.581 581.031C424.86 584.233 422.77 586.985 420.391 589.4L415.181 585.629C417.432 580.791 420.656 575.921 420.254 570.674C419.337 566.381 413.067 565.121 408.983 563.597L409.867 557.243Z" fill="url(#paint43_linear_255_345)"/>
<path d="M416.995 589.897C413.064 613.132 412.975 637.089 414.293 660.589C414.8 668.436 415.548 676.258 416.762 683.856L405.04 685.429C403.424 669.102 403.585 652.967 404.413 636.696C405.37 620.505 406.986 604.411 410.7 588.549L416.987 589.897H416.995Z" fill="url(#paint44_linear_255_345)"/>
<path d="M308.157 432.787L263.732 461.879L225.319 397.983L266.103 362.833L308.157 432.787Z" fill="#BFF816" stroke="url(#paint45_linear_255_345)" stroke-width="4.79695" stroke-linejoin="round"/>
<path d="M323.617 411.116L272.945 427.082L253.361 355.178L302.176 332.393L323.617 411.116Z" fill="#BDFF00" stroke="url(#paint46_linear_255_345)" stroke-width="4.79695" stroke-linejoin="round"/>
<path d="M551.853 461.686L584.75 500.069L631.339 446.522L602.863 403.061L551.853 461.686Z" fill="#A763FF" stroke="url(#paint47_linear_255_345)" stroke-width="4.79695" stroke-linejoin="round"/>
<path d="M542.756 437.078L583.79 464.092L615.553 398.487L577.535 365.255L542.756 437.078Z" fill="#BDFF00" stroke="url(#paint48_linear_255_345)" stroke-width="4.79695" stroke-linejoin="round"/>
<path d="M285.052 706.955C296.428 695.522 323.899 693.051 339.616 692.008C380.175 690.131 420.782 694.487 460.432 702.855C469.75 704.917 479.011 707.365 488.024 710.51C494.68 712.893 501.634 715.484 507.495 719.471C498.925 715.468 489.591 713.422 480.41 711.336C443.991 703.489 312.041 685.87 285.052 706.947V706.955Z" fill="white"/>
<path d="M600.029 399.555L579.158 441.548L557.629 428.438L555.418 433.404L579.158 448.488L603.164 401.761L600.029 399.555Z" fill="#36B208"/>
<path d="M278.289 410.987L306.933 401.207L292.72 349.145L295.501 345.831L311.54 404.336L278.908 413.9L278.289 410.987Z" fill="#36B208"/>
<path d="M346.947 85.415L365.872 151.398H376.741L350.629 87.6214L346.947 85.415Z" fill="white"/>
<path d="M466.651 52.5439L442.701 137.911L448.956 136.924L466.651 52.5439Z" fill="white"/>
<path d="M726.948 613.34C777.787 613.34 819 572.211 819 521.475C819 470.739 777.787 429.609 726.948 429.609C676.11 429.609 634.897 470.739 634.897 521.475C634.897 572.211 676.11 613.34 726.948 613.34Z" fill="#36B208" stroke="url(#paint49_linear_255_345)" stroke-width="6.42701" stroke-miterlimit="10"/>
<path d="M634.897 521.475C634.897 539.471 640.082 556.247 649.038 570.416C662.954 579.635 679.644 585.011 697.596 585.011C746.138 585.011 785.491 545.737 785.491 497.293C785.491 473.352 775.876 451.649 760.296 435.827C749.957 431.816 738.71 429.609 726.948 429.609C676.107 429.609 634.897 470.736 634.897 521.475Z" fill="#BFF816"/>
<path d="M726.948 613.34C777.787 613.34 819 572.211 819 521.475C819 470.739 777.787 429.609 726.948 429.609C676.11 429.609 634.897 470.739 634.897 521.475C634.897 572.211 676.11 613.34 726.948 613.34Z" stroke="url(#paint50_linear_255_345)" stroke-width="6.42701" stroke-miterlimit="10"/>
<path d="M662.612 451.906C691.168 443.899 721.324 456.311 743.738 473.842C773.797 497.374 795.834 536.519 787.577 575.383C785.583 584.931 781.805 594.021 776.66 602.084L771.024 598.995C776.579 586.888 779.57 574.027 779.192 560.837C777.592 517.038 742.845 477.46 702.809 462.248C690.533 457.739 677.091 455.661 664.172 458.14L662.62 451.914L662.612 451.906Z" fill="url(#paint51_linear_255_345)"/>
<path d="M634.897 517.994C703.232 488.501 772.355 547.014 723.813 613.333" stroke="url(#paint52_linear_255_345)" stroke-width="6.42701" stroke-linejoin="round"/>
<path d="M758.78 438.154C768.122 461.213 788.864 488.492 816.471 499.997" stroke="url(#paint53_linear_255_345)" stroke-width="6.42701" stroke-linejoin="round"/>
<path d="M647.291 554.362C688.268 560.957 732.468 546.844 764.136 520.64C774.868 511.39 784.234 500.318 788.72 486.831C791.92 477.403 791.928 467.342 788.961 457.61L794.951 455.275C799.405 464.582 800.803 475.727 798.697 486.06C789.733 528.447 738.506 555.316 698.976 562.168C681.418 565.185 663.129 565.313 645.852 560.62L647.283 554.362H647.291Z" fill="url(#paint54_linear_255_345)"/>
<path d="M202.826 670.906C232.491 685.376 276.774 663.769 280.651 660.231C284.528 656.693 267.53 618.71 238.477 604.697C209.424 590.684 161.782 607.804 159.534 613.153C157.287 618.502 168.496 654.164 202.826 670.906Z" fill="#A763FF" stroke="url(#paint55_linear_255_345)" stroke-width="4.79695" stroke-miterlimit="10"/>
<path d="M159.55 613.152C157.32 618.47 168.388 653.748 202.261 670.611C196.772 658.735 187.95 636.396 192.986 624.746C215.17 616.159 254.723 621.211 280.189 660.609C280.381 660.466 280.541 660.345 280.659 660.231C284.536 656.693 267.538 618.709 238.485 604.696C209.432 590.683 161.79 607.803 159.542 613.152L159.55 613.152Z" fill="#9058EC"/>
<path d="M247.741 673.227C250.388 659.985 258.002 642.651 268.727 631.647C265.162 626.636 260.892 621.564 256.001 616.984C251.444 622.64 245.755 630.728 239.643 641.873C232.403 655.072 229.562 667.082 228.533 675.811C235.077 675.64 241.616 674.641 247.749 673.227L247.741 673.227Z" fill="#BDFF00" stroke="url(#paint56_linear_255_345)" stroke-width="4.79695" stroke-miterlimit="10"/>
<path d="M255.996 616.985C253.33 620.295 250.274 624.445 246.977 629.547C252.128 632.213 257.218 635.591 262.114 639.754C264.157 636.822 266.36 634.074 268.73 631.648C265.165 626.637 260.895 621.566 256.004 616.985L255.996 616.985Z" fill="#36B208"/>
<path d="M247.741 673.227C250.388 659.985 258.002 642.651 268.727 631.647C265.162 626.636 260.892 621.564 256.001 616.984C251.444 622.64 245.755 630.728 239.643 641.873C232.403 655.072 229.562 667.082 228.533 675.811C235.077 675.64 241.616 674.641 247.749 673.227L247.741 673.227Z" stroke="url(#paint57_linear_255_345)" stroke-width="4.79695" stroke-miterlimit="10"/>
<path d="M173.761 647.06C177.465 651.854 181.953 656.607 187.298 660.953C191.092 654.969 195.595 646.78 200.193 635.96C206.476 621.177 207.908 608.243 207.874 599.364C201.488 599.591 195.143 600.424 189.255 601.601C188.867 614.604 183.385 633.815 173.761 647.053L173.761 647.06Z" fill="#BDFF00" stroke="url(#paint58_linear_255_345)" stroke-width="4.79695" stroke-miterlimit="10"/>
<path d="M173.76 647.06C177.465 651.854 181.952 656.607 187.298 660.953C189.374 657.677 191.671 653.729 194.077 649.048C191.531 640.04 190.321 630.892 192.988 624.737C196.585 623.347 200.638 622.317 205.015 621.729C207.263 612.926 207.901 605.246 207.874 599.364C201.488 599.591 195.143 600.424 189.255 601.601C188.866 614.604 183.385 633.815 173.761 647.053L173.76 647.06Z" fill="#36B208"/>
<path d="M173.761 647.06C177.465 651.854 181.953 656.607 187.298 660.953C191.092 654.969 195.595 646.78 200.193 635.96C206.476 621.177 207.908 608.243 207.874 599.364C201.488 599.591 195.143 600.424 189.255 601.601C188.867 614.604 183.385 633.815 173.761 647.053L173.761 647.06Z" stroke="url(#paint59_linear_255_345)" stroke-width="4.79695" stroke-miterlimit="10"/>
<path d="M202.826 670.906C232.491 685.376 276.774 663.769 280.651 660.231C284.528 656.693 267.53 618.71 238.477 604.697C209.424 590.684 161.782 607.804 159.534 613.153C157.287 618.502 168.496 654.164 202.826 670.906Z" stroke="url(#paint60_linear_255_345)" stroke-width="4.79695" stroke-miterlimit="10"/>
<path d="M239.059 642.94L203.283 627.708L199.435 637.715L234.414 652.947L239.059 642.94Z" fill="#BDFF00" stroke="url(#paint61_linear_255_345)" stroke-width="4.79695" stroke-miterlimit="10"/>
<defs>
<linearGradient id="paint0_linear_255_345" x1="248.364" y1="216.626" x2="248.364" y2="313.939" gradientUnits="userSpaceOnUse">
<stop/>
<stop offset="1"/>
</linearGradient>
<linearGradient id="paint1_linear_255_345" x1="620.538" y1="242.518" x2="620.538" y2="345.319" gradientUnits="userSpaceOnUse">
<stop/>
<stop offset="1"/>
</linearGradient>
<linearGradient id="paint2_linear_255_345" x1="466.127" y1="0" x2="466.127" y2="213.056" gradientUnits="userSpaceOnUse">
<stop/>
<stop offset="1"/>
</linearGradient>
<linearGradient id="paint3_linear_255_345" x1="470.896" y1="147.594" x2="593.887" y2="127.86" gradientUnits="userSpaceOnUse">
<stop stop-color="#A763FF"/>
<stop offset="1" stop-color="#6D3CBC"/>
</linearGradient>
<linearGradient id="paint4_linear_255_345" x1="83.3378" y1="444.051" x2="83.3378" y2="604.402" gradientUnits="userSpaceOnUse">
<stop/>
<stop offset="1"/>
</linearGradient>
<linearGradient id="paint5_linear_255_345" x1="143.943" y1="528.905" x2="143.943" y2="579.69" gradientUnits="userSpaceOnUse">
<stop/>
<stop offset="1"/>
</linearGradient>
<linearGradient id="paint6_linear_255_345" x1="128.483" y1="448.35" x2="128.483" y2="478.901" gradientUnits="userSpaceOnUse">
<stop/>
<stop offset="1"/>
</linearGradient>
<linearGradient id="paint7_linear_255_345" x1="128.483" y1="448.35" x2="128.483" y2="478.901" gradientUnits="userSpaceOnUse">
<stop/>
<stop offset="1"/>
</linearGradient>
<linearGradient id="paint8_linear_255_345" x1="83.3378" y1="444.051" x2="83.3378" y2="604.402" gradientUnits="userSpaceOnUse">
<stop/>
<stop offset="1"/>
</linearGradient>
<linearGradient id="paint9_linear_255_345" x1="95.617" y1="473.18" x2="95.617" y2="511.067" gradientUnits="userSpaceOnUse">
<stop/>
<stop offset="1"/>
</linearGradient>
<linearGradient id="paint10_linear_255_345" x1="103.197" y1="538.17" x2="103.197" y2="554.867" gradientUnits="userSpaceOnUse">
<stop/>
<stop offset="1"/>
</linearGradient>
<linearGradient id="paint11_linear_255_345" x1="148.814" y1="480.385" x2="148.814" y2="529.269" gradientUnits="userSpaceOnUse">
<stop/>
<stop offset="1"/>
</linearGradient>
<linearGradient id="paint12_linear_255_345" x1="67.032" y1="553.795" x2="67.032" y2="601.691" gradientUnits="userSpaceOnUse">
<stop/>
<stop offset="1"/>
</linearGradient>
<linearGradient id="paint13_linear_255_345" x1="23.0822" y1="536.118" x2="23.0822" y2="553.795" gradientUnits="userSpaceOnUse">
<stop/>
<stop offset="1"/>
</linearGradient>
<linearGradient id="paint14_linear_255_345" x1="37.1687" y1="460.96" x2="37.1687" y2="505.68" gradientUnits="userSpaceOnUse">
<stop/>
<stop offset="1"/>
</linearGradient>
<linearGradient id="paint15_linear_255_345" x1="57.8772" y1="501.67" x2="57.8772" y2="557.175" gradientUnits="userSpaceOnUse">
<stop/>
<stop offset="1"/>
</linearGradient>
<linearGradient id="paint16_linear_255_345" x1="631.119" y1="621.363" x2="631.119" y2="703.649" gradientUnits="userSpaceOnUse">
<stop/>
<stop offset="1"/>
</linearGradient>
<linearGradient id="paint17_linear_255_345" x1="631.119" y1="621.363" x2="631.119" y2="703.649" gradientUnits="userSpaceOnUse">
<stop/>
<stop offset="1"/>
</linearGradient>
<linearGradient id="paint18_linear_255_345" x1="606.154" y1="630.582" x2="606.154" y2="677.453" gradientUnits="userSpaceOnUse">
<stop/>
<stop offset="1"/>
</linearGradient>
<linearGradient id="paint19_linear_255_345" x1="660.163" y1="650.334" x2="660.163" y2="692.648" gradientUnits="userSpaceOnUse">
<stop/>
<stop offset="1"/>
</linearGradient>
<linearGradient id="paint20_linear_255_345" x1="442.73" y1="160.394" x2="442.73" y2="239.757" gradientUnits="userSpaceOnUse">
<stop/>
<stop offset="1"/>
</linearGradient>
<linearGradient id="paint21_linear_255_345" x1="309.927" y1="214.729" x2="575.953" y2="240.021" gradientUnits="userSpaceOnUse">
<stop/>
<stop offset="1"/>
</linearGradient>
<linearGradient id="paint22_linear_255_345" x1="309.927" y1="214.729" x2="575.953" y2="240.021" gradientUnits="userSpaceOnUse">
<stop/>
<stop offset="1"/>
</linearGradient>
<linearGradient id="paint23_linear_255_345" x1="284.806" y1="379.178" x2="566.678" y2="405.976" gradientUnits="userSpaceOnUse">
<stop/>
<stop offset="1"/>
</linearGradient>
<linearGradient id="paint24_linear_255_345" x1="392.12" y1="569.574" x2="392.12" y2="736.857" gradientUnits="userSpaceOnUse">
<stop/>
<stop offset="1"/>
</linearGradient>
<linearGradient id="paint25_linear_255_345" x1="392.12" y1="569.574" x2="392.12" y2="736.857" gradientUnits="userSpaceOnUse">
<stop/>
<stop offset="1"/>
</linearGradient>
<linearGradient id="paint26_linear_255_345" x1="484.046" y1="215.798" x2="484.046" y2="394.29" gradientUnits="userSpaceOnUse">
<stop/>
<stop offset="1"/>
</linearGradient>
<linearGradient id="paint27_linear_255_345" x1="484.044" y1="209.388" x2="484.044" y2="400.725" gradientUnits="userSpaceOnUse">
<stop/>
<stop offset="1"/>
</linearGradient>
<linearGradient id="paint28_linear_255_345" x1="372.106" y1="198.975" x2="372.106" y2="369.251" gradientUnits="userSpaceOnUse">
<stop/>
<stop offset="1"/>
</linearGradient>
<linearGradient id="paint29_linear_255_345" x1="372.09" y1="192.557" x2="372.09" y2="375.67" gradientUnits="userSpaceOnUse">
<stop/>
<stop offset="1"/>
</linearGradient>
<linearGradient id="paint30_linear_255_345" x1="417.238" y1="375.546" x2="417.238" y2="566.639" gradientUnits="userSpaceOnUse">
<stop/>
<stop offset="1"/>
</linearGradient>
<linearGradient id="paint31_linear_255_345" x1="417.238" y1="375.546" x2="417.238" y2="566.639" gradientUnits="userSpaceOnUse">
<stop/>
<stop offset="1"/>
</linearGradient>
<linearGradient id="paint32_linear_255_345" x1="568.255" y1="313.626" x2="568.255" y2="327.081" gradientUnits="userSpaceOnUse">
<stop/>
<stop offset="1"/>
</linearGradient>
<linearGradient id="paint33_linear_255_345" x1="268.728" y1="507.56" x2="550.6" y2="534.358" gradientUnits="userSpaceOnUse">
<stop/>
<stop offset="1"/>
</linearGradient>
<linearGradient id="paint34_linear_255_345" x1="406.381" y1="500.074" x2="406.381" y2="583.92" gradientUnits="userSpaceOnUse">
<stop/>
<stop offset="1"/>
</linearGradient>
<linearGradient id="paint35_linear_255_345" x1="406.381" y1="500.074" x2="406.381" y2="583.92" gradientUnits="userSpaceOnUse">
<stop/>
<stop offset="1"/>
</linearGradient>
<linearGradient id="paint36_linear_255_345" x1="322.019" y1="554.178" x2="480.498" y2="569.245" gradientUnits="userSpaceOnUse">
<stop/>
<stop offset="1"/>
</linearGradient>
<linearGradient id="paint37_linear_255_345" x1="401.283" y1="558.457" x2="401.283" y2="629.409" gradientUnits="userSpaceOnUse">
<stop/>
<stop offset="1"/>
</linearGradient>
<linearGradient id="paint38_linear_255_345" x1="401.283" y1="558.457" x2="401.283" y2="629.409" gradientUnits="userSpaceOnUse">
<stop/>
<stop offset="1"/>
</linearGradient>
<linearGradient id="paint39_linear_255_345" x1="392.147" y1="683.553" x2="392.147" y2="762.916" gradientUnits="userSpaceOnUse">
<stop/>
<stop offset="1"/>
</linearGradient>
<linearGradient id="paint40_linear_255_345" x1="259.352" y1="737.929" x2="525.378" y2="763.221" gradientUnits="userSpaceOnUse">
<stop/>
<stop offset="1"/>
</linearGradient>
<linearGradient id="paint41_linear_255_345" x1="467.873" y1="387.832" x2="467.873" y2="497.188" gradientUnits="userSpaceOnUse">
<stop/>
<stop offset="1"/>
</linearGradient>
<linearGradient id="paint42_linear_255_345" x1="429.744" y1="506.407" x2="429.744" y2="549.933" gradientUnits="userSpaceOnUse">
<stop/>
<stop offset="1"/>
</linearGradient>
<linearGradient id="paint43_linear_255_345" x1="419.143" y1="557.225" x2="419.143" y2="589.4" gradientUnits="userSpaceOnUse">
<stop/>
<stop offset="1"/>
</linearGradient>
<linearGradient id="paint44_linear_255_345" x1="410.398" y1="588.549" x2="410.398" y2="685.429" gradientUnits="userSpaceOnUse">
<stop/>
<stop offset="1"/>
</linearGradient>
<linearGradient id="paint45_linear_255_345" x1="266.738" y1="362.833" x2="266.738" y2="461.879" gradientUnits="userSpaceOnUse">
<stop/>
<stop offset="1"/>
</linearGradient>
<linearGradient id="paint46_linear_255_345" x1="288.489" y1="332.393" x2="288.489" y2="427.082" gradientUnits="userSpaceOnUse">
<stop/>
<stop offset="1"/>
</linearGradient>
<linearGradient id="paint47_linear_255_345" x1="591.596" y1="403.061" x2="591.596" y2="500.069" gradientUnits="userSpaceOnUse">
<stop/>
<stop offset="1"/>
</linearGradient>
<linearGradient id="paint48_linear_255_345" x1="579.155" y1="365.255" x2="579.155" y2="464.092" gradientUnits="userSpaceOnUse">
<stop/>
<stop offset="1"/>
</linearGradient>
<linearGradient id="paint49_linear_255_345" x1="726.948" y1="429.609" x2="726.948" y2="613.34" gradientUnits="userSpaceOnUse">
<stop/>
<stop offset="1"/>
</linearGradient>
<linearGradient id="paint50_linear_255_345" x1="726.948" y1="429.609" x2="726.948" y2="613.34" gradientUnits="userSpaceOnUse">
<stop/>
<stop offset="1"/>
</linearGradient>
<linearGradient id="paint51_linear_255_345" x1="725.969" y1="449.421" x2="725.969" y2="602.084" gradientUnits="userSpaceOnUse">
<stop/>
<stop offset="1"/>
</linearGradient>
<linearGradient id="paint52_linear_255_345" x1="687.488" y1="510.152" x2="687.488" y2="613.333" gradientUnits="userSpaceOnUse">
<stop/>
<stop offset="1"/>
</linearGradient>
<linearGradient id="paint53_linear_255_345" x1="787.626" y1="438.154" x2="787.626" y2="499.997" gradientUnits="userSpaceOnUse">
<stop/>
<stop offset="1"/>
</linearGradient>
<linearGradient id="paint54_linear_255_345" x1="722.755" y1="455.275" x2="722.755" y2="564.31" gradientUnits="userSpaceOnUse">
<stop/>
<stop offset="1"/>
</linearGradient>
<linearGradient id="paint55_linear_255_345" x1="218.225" y1="675.509" x2="222.101" y2="599.744" gradientUnits="userSpaceOnUse">
<stop/>
<stop offset="1"/>
</linearGradient>
<linearGradient id="paint56_linear_255_345" x1="247.442" y1="676.779" x2="250.515" y2="616.703" gradientUnits="userSpaceOnUse">
<stop/>
<stop offset="1"/>
</linearGradient>
<linearGradient id="paint57_linear_255_345" x1="247.442" y1="676.779" x2="250.515" y2="616.703" gradientUnits="userSpaceOnUse">
<stop/>
<stop offset="1"/>
</linearGradient>
<linearGradient id="paint58_linear_255_345" x1="188.93" y1="661.037" x2="192.127" y2="598.558" gradientUnits="userSpaceOnUse">
<stop/>
<stop offset="1"/>
</linearGradient>
<linearGradient id="paint59_linear_255_345" x1="188.93" y1="661.037" x2="192.127" y2="598.558" gradientUnits="userSpaceOnUse">
<stop/>
<stop offset="1"/>
</linearGradient>
<linearGradient id="paint60_linear_255_345" x1="218.225" y1="675.509" x2="222.101" y2="599.744" gradientUnits="userSpaceOnUse">
<stop/>
<stop offset="1"/>
</linearGradient>
<linearGradient id="paint61_linear_255_345" x1="218.638" y1="652.14" x2="219.844" y2="628.555" gradientUnits="userSpaceOnUse">
<stop/>
<stop offset="1"/>
</linearGradient>
</defs>
</svg>
