<svg width="141" height="52" viewBox="0 0 141 52" fill="none" xmlns="http://www.w3.org/2000/svg">
<g clip-path="url(#clip0_255_1587)">
<path d="M15.1723 47.375C14.5399 47.3643 13.4387 47.1716 11.1764 45.6276C10.0554 44.8624 8.96165 43.9708 8.58925 43.5841C8.26035 43.2408 7.38373 42.3279 4.82414 34.671C3.67204 31.2245 2.36534 26.8965 2.21878 25.5418C2.08622 24.3171 2.76891 20.6746 3.06882 19.1653C4.09442 13.9995 4.64789 13.1891 4.82935 12.9238C5.19984 12.3815 5.54917 11.8699 15.6629 6.95282C20.4655 4.61755 25.2399 2.38501 25.2874 2.36222C25.5342 2.24697 25.802 2.19106 26.0674 2.19557C26.3563 2.20048 26.6441 2.27615 26.9026 2.4221C27.3992 2.70039 27.7328 3.203 27.7954 3.76883L28.8628 13.3306C28.9524 14.1357 28.4852 14.8975 27.7269 15.1825C24.1621 16.5228 18.5031 18.6637 17.1668 19.2013C16.8736 19.6254 16.316 20.6747 15.8111 21.7529C15.8583 22.0133 15.9069 22.2766 15.9555 22.5399C16.1305 22.3084 16.3653 22.1163 16.6461 21.9913C16.9195 21.8691 23.42 18.9787 29.8888 17.3442C30.0428 17.3055 30.1979 17.2875 30.3527 17.2901C30.8171 17.298 31.2651 17.4885 31.597 17.8303C32.0375 18.2875 32.1988 18.945 32.0219 19.5539C29.623 27.7813 29.7028 42.0951 29.7033 42.2381C29.7079 42.9239 29.3168 43.5513 28.6983 43.8475C28.398 43.9914 21.2713 47.3739 15.2196 47.3729L15.1709 47.372L15.1723 47.375ZM17.876 31.5366C18.1954 31.5715 18.6858 31.6078 19.4227 31.6277L19.5173 30.2285L19.3716 30.2983C19.1218 30.4179 18.851 30.4752 18.5798 30.4706C18.3306 30.4664 18.0809 30.409 17.8498 30.2989C17.724 30.2393 17.6087 30.1666 17.5026 30.0807C17.6428 30.6774 17.7701 31.1735 17.8775 31.5351L17.876 31.5366Z" fill="#BFF816"/>
<path d="M26.042 3.96673L27.1093 13.5285C27.1093 13.5285 16.7846 17.4112 16.1721 17.7045C15.5596 17.9979 13.9764 21.5218 13.9764 21.5218C13.9764 21.5218 15.9642 32.6342 16.6088 33.0522C17.0099 33.3112 18.6352 33.386 19.8101 33.4059C20.528 33.4181 21.0782 33.4098 21.0782 33.4098L21.4852 27.331L18.61 28.7022L17.3724 23.6086C17.3724 23.6086 23.9311 20.6764 30.3258 19.0612C27.8237 27.6407 27.9367 42.2544 27.9367 42.2544C27.9367 42.2544 20.9417 45.6083 15.2232 45.607C15.2173 45.6069 15.21 45.6067 15.2041 45.6066C13.7505 45.5819 10.3622 42.8731 9.86957 42.3604C8.52641 40.9603 4.20563 27.4312 3.98139 25.3541C3.82978 23.9492 5.5657 14.9895 6.29456 13.924C7.02342 12.8584 26.0405 3.96818 26.0405 3.96818M26.1021 0.428716C25.5714 0.4197 25.0386 0.530093 24.5437 0.760569C24.4961 0.783355 19.7084 3.02156 14.8953 5.36256C12.0524 6.74463 9.75023 7.89404 8.05267 8.77946C4.66648 10.546 3.94651 11.0882 3.37487 11.9264C3.04674 12.406 2.4358 13.301 1.3393 18.821C0.641202 22.329 0.346601 24.6538 0.463944 25.7323C0.690735 27.833 2.89881 34.4811 3.14999 35.233C5.83587 43.268 6.79944 44.2709 7.31671 44.8106C7.82965 45.3442 9.0605 46.3251 10.1815 47.0888C12.2296 48.4861 13.7597 49.1211 15.144 49.1447C15.169 49.1451 15.1941 49.1455 15.2192 49.1459C21.672 49.1479 29.151 45.5973 29.4662 45.4464C30.7031 44.8539 31.4853 43.5991 31.4747 42.2275C31.4741 42.0874 31.396 28.0258 33.7227 20.0524C34.0781 18.8345 33.7539 17.5195 32.8729 16.6051C32.2121 15.9199 31.3132 15.539 30.3859 15.5232C30.265 15.5212 30.1441 15.525 30.0229 15.5362C30.4932 14.8526 30.7228 14.0072 30.6255 13.137L29.5581 3.57524C29.4314 2.44207 28.7672 1.43985 27.7725 0.881777C27.2539 0.59132 26.6799 0.440007 26.102 0.43019L26.1021 0.428716Z" fill="#181818"/>
<path d="M44.7201 45.623C43.7103 45.6059 36.2342 43.6858 32.0361 42.2062C31.7913 42.1195 31.5681 41.9815 31.3839 41.7999C27.9247 38.3997 26.4002 32.2262 30.3914 27.4824C31.2387 26.4764 32.2464 25.6633 33.3758 25.0632C33.3034 25.0708 33.2311 25.074 33.1589 25.0727C32.6768 25.0646 32.2099 24.8605 31.877 24.4921C31.4196 23.9874 31.2918 23.2641 31.5502 22.6345C31.6179 22.4704 33.2085 18.5898 34.4799 15.9719C34.7626 15.3883 35.3427 15.0074 35.9891 14.9771C36.665 14.9458 37.5012 14.9379 38.4741 14.9544C42.7787 15.0275 48.552 15.5355 48.7949 15.5574C49.7196 15.6394 50.423 16.4211 50.4072 17.3498L50.2766 25.0391C50.276 25.0701 50.2755 25.1025 50.272 25.1334L49.0267 42.7086C48.988 43.2536 48.6994 43.7501 48.246 44.0535C45.8699 45.6426 45.0341 45.6284 44.7186 45.623L44.7201 45.623ZM37.2974 34.6601C38.1432 34.8691 39.2346 35.0292 40.2356 35.1347C40.3022 33.7276 40.3996 31.6412 40.5077 29.3574C40.2947 29.7416 40.0635 30.158 39.8156 30.605C39.5175 31.1411 38.9616 31.4856 38.3491 31.5135C38.0451 31.5275 37.9018 31.6312 37.7768 31.7839C37.4485 32.1883 37.1847 33.1349 37.2974 34.6601Z" fill="#BFF816"/>
<path d="M38.4451 16.7217C42.7364 16.7946 48.6392 17.318 48.6392 17.318L48.5085 25.0073L47.2633 42.5826C47.2633 42.5826 45.3481 43.8639 44.7496 43.8537C44.1511 43.8436 37.0599 42.0996 32.6228 40.5363C29.9629 37.9209 28.2664 32.7516 31.7429 28.6199C33.9432 26.0045 36.8438 25.5671 38.6777 25.5983C39.742 25.6164 40.4468 25.792 40.4468 25.792C40.4468 25.792 39.6096 27.3335 38.2695 29.7453C36.0899 29.8439 35.0635 32.1932 35.6758 35.9904C37.6227 36.8345 41.9176 37.0431 41.9176 37.0431C41.9176 37.0431 42.2837 29.2045 42.5814 23.056C41.5636 22.6406 40.3793 22.4774 39.2014 22.4574C36.172 22.406 33.1869 23.3019 33.1869 23.3019C33.1869 23.3019 34.81 19.3393 36.0706 16.7418C36.7509 16.7106 37.5635 16.7067 38.4451 16.7217ZM38.5052 13.1836C37.4939 13.1665 36.6193 13.1752 35.908 13.2074C34.6138 13.2679 33.455 14.0298 32.8881 15.1969C31.5924 17.8646 29.9802 21.795 29.9125 21.9619C29.4787 23.0222 29.5838 24.2125 30.1707 25.1662C29.7708 25.5295 29.3911 25.9212 29.0374 26.3429C26.8175 28.9815 25.875 32.2966 26.3838 35.6762C26.7986 38.429 28.1685 41.1213 30.1439 43.0615C30.5138 43.4246 30.9588 43.7035 31.4484 43.8755C34.1587 44.8299 37.4846 45.7417 39.2257 46.2003C43.6885 47.3747 44.3902 47.3866 44.691 47.3918C45.6521 47.4081 46.6102 47.0882 47.9981 46.2874C48.6354 45.9208 49.1724 45.5627 49.2306 45.5239C50.1389 44.9156 50.7161 43.9226 50.7922 42.8327L52.0374 25.2575C52.0414 25.1942 52.044 25.1308 52.0451 25.0674L52.1757 17.3781C52.2072 15.5221 50.799 13.9573 48.9497 13.7931C48.7038 13.7713 42.8702 13.2578 38.5037 13.1836L38.5052 13.1836Z" fill="#181818"/>
<path d="M75.1452 47.8908C74.641 47.8822 74.1579 47.6735 73.8299 47.2801C73.4354 46.8059 73.3072 46.1903 73.5073 45.6083C73.5373 45.4923 73.7051 44.8168 74.1675 42.424C74.6137 40.115 76.108 29.9288 76.652 26.2044L75.7425 25.8336C74.9636 26.6358 74.2143 27.4311 73.8517 27.8526C73.7416 28.8638 73.4188 31.6364 72.4756 39.5021C72.4293 39.8862 72.2595 40.2446 71.9893 40.5232C67.8874 44.7563 67.0795 44.7426 66.4309 44.7316C65.7336 44.7198 65.1047 44.3301 64.7892 43.7157C64.4838 43.1207 62.5888 38.9626 62.3726 38.49C62.2475 38.2165 62.1951 37.9148 62.2194 37.6144L63.1339 26.2313L62.7025 24.9735C61.9802 25.2223 61.1153 25.5305 60.3077 25.8471C60.5437 31.9191 61.4822 41.6025 61.4922 41.7059C61.5562 42.3676 61.2445 43.0082 60.6854 43.3673C60.5304 43.4664 56.8675 45.8078 53.8158 47.3279C53.5585 47.4562 53.2773 47.5178 52.9972 47.513C52.7923 47.5096 52.5865 47.4707 52.3917 47.3951C51.9288 47.2162 51.5619 46.8516 51.381 46.3885C48.7862 39.7603 49.1819 25.0624 49.5259 20.4365C49.5697 19.8533 49.8987 19.328 50.405 19.0358C51.9999 18.1147 61.2748 14.4015 65.5069 12.9265C65.7086 12.8562 65.9156 12.8243 66.1191 12.8278C66.8001 12.8394 67.4376 13.2454 67.7184 13.9064L69.9855 19.2461C70.3434 18.8407 70.7312 18.4064 71.1294 17.9708C74.2169 14.6022 75.3081 13.994 76.3459 14.0116C76.4683 14.0137 76.5919 14.0276 76.711 14.0503C77.8176 14.2711 81.4155 16.1873 82.4909 16.7703C87.5436 19.506 87.7619 20.1099 87.9746 20.6959C88.1464 21.1722 88.3253 21.6663 87.2815 30.0744C86.6954 34.7994 85.939 40.1806 85.3073 44.1174C85.2281 44.6144 84.9405 45.0534 84.517 45.3264C82.2628 46.7745 76.5876 47.6985 75.4714 47.8698C75.3635 47.8856 75.2542 47.8941 75.1466 47.8923L75.1452 47.8908Z" fill="#BFF816"/>
<path d="M66.0883 14.5951L69.4713 22.5653C69.4713 22.5653 75.0858 15.7581 76.3137 15.7789C76.3314 15.7792 76.3477 15.7795 76.3638 15.7842C77.4792 16.0067 86.0204 20.5003 86.3092 21.2956C86.5965 22.0909 84.8461 35.8103 83.5596 43.8353C81.5082 45.1527 75.2026 46.1191 75.2026 46.1191C75.2026 46.1191 75.3461 45.657 75.9056 42.7586C76.4665 39.8602 78.602 25.0871 78.602 25.0871L75.3113 23.7469C75.3113 23.7469 72.1457 26.9387 72.1411 27.2099C72.1365 27.4812 70.7193 39.2907 70.7193 39.2907C70.7193 39.2907 67.1516 42.9727 66.4617 42.9609C66.416 42.9602 66.3824 42.9434 66.3639 42.9062C66.0684 42.332 63.9844 37.7548 63.9844 37.7548L64.9272 26.0035L63.8089 22.739C63.8089 22.739 60.5709 23.7663 58.5013 24.6778C58.6453 30.6996 59.7324 41.8749 59.7324 41.8749C59.7324 41.8749 56.0292 44.2465 53.0281 45.7409C50.7599 39.9441 50.8536 26.4398 51.2896 20.5651C52.6537 19.7772 61.6456 16.1432 66.0883 14.5951ZM66.1485 11.0571C65.7431 11.0502 65.3291 11.114 64.9256 11.2546C60.9042 12.655 51.3255 16.4589 49.5205 17.5032C48.5078 18.0891 47.8485 19.1382 47.7624 20.3046C47.5461 23.2265 47.3926 28.1845 47.6103 33.3345C47.8714 39.4924 48.5865 44.1009 49.734 47.0327C50.0958 47.9576 50.8295 48.6882 51.7569 49.0445C52.1481 49.1957 52.5582 49.2734 52.9695 49.2804C53.5311 49.29 54.0936 49.1653 54.6081 48.9101C57.7431 47.3487 61.485 44.9571 61.643 44.8565C62.129 44.5448 62.521 44.1268 62.799 43.6463C62.9925 44.061 63.1449 44.3792 63.2191 44.5235C63.8329 45.7195 65.0542 46.4775 66.4046 46.5005C68.0026 46.5276 69.1984 45.6617 71.2754 43.7107C71.647 43.3616 72.0053 43.0138 72.3143 42.7094C71.9979 44.3187 71.8563 44.9312 71.8135 45.1075C71.397 46.2727 71.6492 47.4861 72.4336 48.4462C73.0822 49.2402 74.0544 49.646 75.0657 49.6632C75.2898 49.667 75.5157 49.6516 75.7419 49.6171C75.8113 49.6065 77.4554 49.3528 79.3811 48.9269C83.2192 48.0764 84.6979 47.3141 85.4761 46.8142C86.3229 46.2697 86.8982 45.3903 87.0581 44.3976C87.6916 40.4402 88.4514 35.0355 89.0407 30.2929C89.3363 27.9076 89.5688 25.8559 89.7092 24.3601C89.9574 21.7307 89.9444 20.9342 89.6416 20.0959C89.205 18.8882 88.2988 18.1502 86.6704 17.1331C85.5688 16.4449 84.2483 15.7102 83.3365 15.217C82.1383 14.5684 80.9163 13.9387 79.8924 13.445C78.2412 12.6472 77.5829 12.4222 77.0582 12.3174C76.8348 12.2738 76.6067 12.2493 76.3782 12.2454L76.3753 12.2454C74.708 12.2171 73.2741 13.1187 70.5367 16.0141L69.3485 13.2157C68.787 11.8953 67.512 11.0832 66.1514 11.0601L66.1485 11.0571Z" fill="#181818"/>
<path d="M86.6923 46.7418C86.2412 46.7341 85.8078 46.5542 85.4815 46.2331C85.0884 45.846 84.8987 45.2986 84.9669 44.7513C86.1786 35.1442 86.421 20.1826 86.0331 10.9819C85.9994 10.1895 86.4982 9.47244 87.2515 9.22571L94.931 6.71958C95.1208 6.65793 95.316 6.6288 95.5105 6.63211C95.8953 6.63864 96.2735 6.77041 96.5834 7.01751C97.049 7.38817 97.2972 7.96748 97.2429 8.55934L96.2862 19.2177L100.447 16.3893C100.756 16.1793 101.114 16.0777 101.473 16.0838C101.776 16.089 102.08 16.1723 102.352 16.3347C102.43 16.3817 104.297 17.5032 106.203 19.0131C109.147 21.3443 110.549 23.2674 110.614 25.0646C110.698 27.4077 109.277 31.8442 108.839 33.1491C108.121 35.2869 106.712 39.0556 105.349 40.2918C103.826 41.6727 99.3799 43.3475 98.055 43.8264C95.8101 44.6391 91.3851 46.0975 86.9743 46.7244C86.8811 46.7376 86.7882 46.7434 86.6953 46.7418L86.6923 46.7418Z" fill="#BFF816"/>
<path d="M95.4817 8.40085L94.1904 22.7828L101.442 17.8525C101.442 17.8525 108.739 22.2189 108.845 25.1286C108.95 28.0383 105.808 37.4858 104.161 38.9796C102.512 40.4733 93.7286 43.9752 86.7235 44.9725C88.0255 34.6474 88.1616 19.4348 87.8021 10.9084L95.4817 8.40085ZM95.5418 4.86283C95.1541 4.85624 94.7623 4.913 94.3842 5.03634L86.7047 7.54393C85.1966 8.0359 84.2005 9.47146 84.2679 11.0563C84.6526 20.1847 84.4139 35.0181 83.2142 44.5295C83.0761 45.6242 83.4571 46.7204 84.2432 47.4947C84.8958 48.1369 85.7642 48.4952 86.6649 48.5105C86.8507 48.5137 87.0366 48.5021 87.2229 48.4758C91.7919 47.8264 96.3474 46.326 98.6561 45.4893C100.889 44.6808 104.883 43.1001 106.536 41.6019C107.316 40.8941 108.02 39.806 108.817 38.0722C109.38 36.8445 109.968 35.3372 110.514 33.7111C111.106 31.9487 112.474 27.5703 112.38 24.9999C112.295 22.6465 110.68 20.3025 107.3 17.6247C105.304 16.0439 103.341 14.8648 103.259 14.8148C102.716 14.49 102.11 14.3234 101.502 14.313C100.786 14.3009 100.069 14.5055 99.4525 14.9256L98.3829 15.6521L99.005 8.71581C99.1107 7.53055 98.6157 6.37195 97.6846 5.63063C97.0662 5.13794 96.3098 4.8744 95.5403 4.86133L95.5418 4.86283Z" fill="#181818"/>
<path d="M109.535 49.2261C109.124 49.2192 108.718 49.0692 108.395 48.7851C107.849 48.3039 107.654 47.5367 107.903 46.8523C107.917 46.8157 109.237 43.1649 109.82 39.5045C110.384 35.9574 109.73 25.2422 109.38 19.4838L109.337 18.7827C109.278 17.8217 110 16.9905 110.96 16.9124L117.664 16.3686C117.722 16.3637 117.779 16.3617 117.837 16.3627C118.263 16.37 118.673 16.5303 118.992 16.8188C119.354 17.145 119.566 17.6072 119.575 18.0939L120.1 42.9027C120.114 43.5783 119.742 44.2031 119.143 44.5129L110.375 49.0295C110.11 49.1666 109.82 49.231 109.535 49.2261Z" fill="#BFF816"/>
<path d="M117.807 18.13L118.332 42.9387L109.564 47.4554C109.564 47.4554 110.948 43.6627 111.566 39.7802C112.183 35.8978 111.471 24.7657 111.102 18.6738L117.806 18.13M117.867 14.592C117.752 14.59 117.637 14.594 117.52 14.6038L110.816 15.1476C108.897 15.3037 107.454 16.9662 107.571 18.8895L107.613 19.5966C107.935 24.8796 108.605 35.8724 108.072 39.2269C107.518 42.7078 106.253 46.2121 106.24 46.2473C105.742 47.6161 106.135 49.1504 107.228 50.1127C107.873 50.6811 108.684 50.981 109.507 50.9949C110.079 51.0047 110.655 50.8758 111.186 50.6032L119.954 46.0865C121.156 45.467 121.9 44.2174 121.871 42.8661L121.346 18.0574C121.325 17.0824 120.903 16.1595 120.178 15.5057C119.541 14.9301 118.719 14.6094 117.867 14.5949L117.867 14.592Z" fill="#181818"/>
<path d="M127.759 42.6993C125.545 42.6617 123.419 42.192 121.44 41.3046C120.616 40.9353 120.203 40.0051 120.482 39.1458C121.885 34.8019 122.203 29.1227 122.27 26.2469L120.559 26.3461C120.515 26.3483 120.47 26.349 120.426 26.3483C119.969 26.3405 119.53 26.1561 119.204 25.8291C118.847 25.4706 118.659 24.9778 118.69 24.4726L119.011 19.1355C119.056 18.3975 119.555 17.7646 120.262 17.5495L122.438 16.8875C122.585 15.178 122.835 11.7066 122.909 7.37844C122.924 6.47035 123.626 5.72137 124.531 5.64532C125.424 5.57055 128.032 5.29338 129.34 4.91452C129.512 4.86436 129.688 4.84227 129.862 4.84523C130.223 4.85137 130.578 4.96799 130.875 5.18538C131.318 5.50846 131.585 6.01879 131.601 6.56613C131.656 8.58728 131.74 12.492 131.79 14.8684L135.374 14.3645C135.466 14.3513 135.559 14.3455 135.65 14.3471C136.11 14.3549 136.554 14.5423 136.881 14.8767C137.274 15.2771 137.455 15.8391 137.367 16.3935L136.535 21.651C136.429 22.3143 135.958 22.8607 135.318 23.0622L131.449 24.2794C131.425 25.9128 131.345 28.8297 131.065 31.6621C132.699 31.2991 134.748 30.6718 136.056 30.2162C136.255 30.1473 136.462 30.1155 136.667 30.119C137.05 30.1255 137.425 30.2557 137.735 30.4999C138.21 30.8751 138.459 31.4662 138.397 32.0683L137.668 39.1561C137.61 39.7199 137.286 40.2216 136.794 40.5067C136.633 40.5998 132.803 42.7835 127.757 42.6978L127.759 42.6993Z" fill="#BFF816"/>
<path d="M129.832 6.6174C129.916 9.6624 130.062 16.9007 130.062 16.9007L135.622 16.1193L134.789 21.3753L129.691 22.9801C129.691 22.9801 129.722 29.1341 129.035 33.7217C131.265 33.7596 136.64 31.8897 136.64 31.8897L135.91 38.9775C135.91 38.9775 132.403 41.0089 127.79 40.9305C126.032 40.9007 124.112 40.5643 122.165 39.6907C124.231 33.301 124.053 24.3722 124.053 24.3722L120.458 24.581L120.778 19.2439L124.09 18.2355C124.09 18.2355 124.571 13.7624 124.679 7.41021C124.679 7.41021 128.065 7.1271 129.832 6.61593M129.892 3.07939C129.542 3.07345 129.192 3.11911 128.848 3.21797C127.812 3.51741 125.559 3.78585 124.382 3.8853C122.572 4.03739 121.171 5.53537 121.14 7.35155C121.081 10.7878 120.908 13.6751 120.769 15.5484L119.746 15.8599C118.331 16.29 117.333 17.556 117.244 19.032L116.924 24.369C116.862 25.3781 117.236 26.3651 117.951 27.0806C118.602 27.7331 119.481 28.1034 120.395 28.1189C120.406 28.1191 120.417 28.1193 120.429 28.1195C120.277 31.0794 119.87 35.2795 118.796 38.6027C118.241 40.32 119.068 42.1803 120.715 42.919C122.913 43.906 125.274 44.4268 127.729 44.4685C133.167 44.5609 137.236 42.2972 137.682 42.0394C138.664 41.4706 139.313 40.4672 139.428 39.3396L140.158 32.2518C140.281 31.0476 139.782 29.8654 138.832 29.1149C138.214 28.6266 137.462 28.3646 136.697 28.3516C136.287 28.3447 135.873 28.4084 135.474 28.5476C134.72 28.8091 133.866 29.0792 133.026 29.323C133.114 27.9472 133.163 26.6489 133.191 25.5877L135.85 24.751C137.131 24.3481 138.072 23.2552 138.282 21.9301L139.114 16.6741C139.29 15.5667 138.93 14.4399 138.144 13.6406C137.489 12.9732 136.602 12.5984 135.68 12.5827C135.498 12.5796 135.313 12.5912 135.128 12.6161L133.516 12.8423C133.468 10.6385 133.41 8.04662 133.368 6.52117C133.338 5.42651 132.802 4.40731 131.918 3.76116C131.322 3.32488 130.613 3.09311 129.89 3.08084L129.892 3.07939Z" fill="#181818"/>
<path d="M36.071 16.7416C34.8103 19.3391 33.1873 23.3018 33.1873 23.3018C33.1873 23.3018 38.9455 21.5741 42.5817 23.0559C42.2841 29.2043 41.9179 37.0429 41.9179 37.0429C41.9179 37.0429 37.623 36.8343 35.6762 35.9902C35.0638 32.1931 36.0902 29.8438 38.2699 29.7451C39.61 27.3333 40.4472 25.7919 40.4472 25.7919C40.4472 25.7919 35.2198 24.4865 31.7433 28.6197C28.2668 32.7515 29.9617 37.9222 32.6232 40.5362C37.0602 42.0994 44.1529 43.8434 44.75 43.8536C45.347 43.8637 47.2636 42.5824 47.2636 42.5824L48.5089 25.0072L48.6395 17.3179C48.6395 17.3179 40.0644 16.5573 36.071 16.7416Z" fill="#BFF816"/>
<path d="M38.444 16.7214C42.7353 16.7943 48.6381 17.3177 48.6381 17.3177L48.5074 25.007L47.2622 42.5822C47.2622 42.5822 45.347 43.8636 44.7485 43.8534C44.15 43.8432 37.0588 42.0992 32.6217 40.536C29.9617 37.9206 28.2653 32.7513 31.7418 28.6196C33.9421 26.0041 36.8427 25.5668 38.6766 25.598C39.7409 25.616 40.4457 25.7917 40.4457 25.7917C40.4457 25.7917 39.6085 27.3332 38.2684 29.745C36.0888 29.8436 35.0624 32.1929 35.6747 35.9901C37.6216 36.8342 41.9165 37.0428 41.9165 37.0428C41.9165 37.0428 42.2826 29.2042 42.5803 23.0557C41.5625 22.6403 40.3782 22.4771 39.2003 22.4571C36.1709 22.4057 33.1858 23.3016 33.1858 23.3016C33.1858 23.3016 34.8089 19.3389 36.0695 16.7415C36.7498 16.7103 37.5624 16.7064 38.444 16.7214ZM38.454 16.1317C37.5046 16.1156 36.6935 16.1224 36.0427 16.1527C35.8272 16.1623 35.6333 16.2902 35.5401 16.4847C34.2855 19.069 32.6565 23.039 32.6411 23.0786C32.5549 23.2894 32.598 23.5305 32.75 23.6983C32.8614 23.8211 33.0166 23.8886 33.1773 23.8913C33.2377 23.8924 33.2983 23.8845 33.3561 23.8663C33.3843 23.858 36.2936 22.9976 39.1903 23.0468C40.2576 23.0649 41.1916 23.2032 41.9703 23.4597C41.7272 28.481 41.4447 34.5191 41.355 36.4154C40.2136 36.3311 37.6857 36.095 36.2069 35.5656C35.8231 32.8075 36.4447 31.5499 36.8603 31.0379C37.2233 30.5913 37.6932 30.3604 38.2938 30.3338C38.499 30.324 38.6837 30.2106 38.7826 30.0309C40.109 27.644 40.9553 26.0894 40.963 26.0733C41.0498 25.9125 41.0574 25.721 40.9851 25.5546C40.9127 25.3882 40.7644 25.2633 40.5882 25.219C40.5574 25.2111 39.8055 25.0273 38.6866 25.0083C36.5829 24.9726 33.5923 25.5042 31.2897 28.2403C29.1541 30.7801 29.0262 33.4455 29.2966 35.2358C29.6187 37.3706 30.6789 39.456 32.2076 40.9581C32.27 41.0181 32.3429 41.0651 32.425 41.093C36.5865 42.5587 43.9277 44.4293 44.7385 44.4431C45.4196 44.4546 46.8174 43.5892 47.59 43.073C47.7422 42.9723 47.8379 42.8058 47.8498 42.6247L49.0951 25.0494C49.0952 25.0391 49.0954 25.0288 49.0956 25.0185L49.2262 17.3292C49.2315 17.0196 48.997 16.7591 48.6893 16.7317C48.6304 16.7263 42.7158 16.2056 38.4525 16.1331L38.454 16.1317Z" fill="white"/>
<path d="M38.4354 17.3109C41.9012 17.3698 46.4811 17.7293 48.0405 17.859L47.9195 24.9807L46.6957 42.2496C45.8682 42.7826 45.0052 43.2369 44.757 43.2636C44.1356 43.2132 37.4316 41.5923 32.9445 40.0253C31.6442 38.7055 30.7428 36.9045 30.4645 35.0594C30.2313 33.5101 30.3413 31.2013 32.1939 29.0002C34.1971 26.6188 36.8194 26.1576 38.668 26.189C38.9953 26.1946 39.2869 26.2157 39.5297 26.242C39.1812 26.879 38.6183 27.9017 37.9048 29.1887C37.1199 29.3007 36.4484 29.68 35.9484 30.2953C34.9725 31.4952 34.6774 33.4972 35.0936 36.0848C35.1256 36.2829 35.2569 36.4518 35.4413 36.5316C37.4629 37.4094 41.709 37.6231 41.8888 37.6321C41.8947 37.6322 41.9006 37.6323 41.9079 37.6324C42.0583 37.6349 42.2037 37.5799 42.3146 37.4786C42.4299 37.3729 42.5002 37.2266 42.5073 37.0704C42.5116 36.9923 42.8761 29.1625 43.1711 23.0848C43.1827 22.8343 43.0362 22.6047 42.8048 22.5109C41.8177 22.1092 40.6093 21.8926 39.2118 21.8688C37.2644 21.8357 35.3579 22.175 34.1855 22.4396C34.7218 21.1629 35.6447 19.0035 36.449 17.317C37.0097 17.3 37.6762 17.298 38.4354 17.3109ZM38.4454 16.7213C37.5639 16.7063 36.7513 16.7102 36.071 16.7414C34.8103 19.3389 33.1873 23.3015 33.1873 23.3015C33.1873 23.3015 36.1724 22.4056 39.2018 22.457C40.3796 22.477 41.5639 22.6402 42.5817 23.0556C42.2841 29.2041 41.9179 37.0427 41.9179 37.0427C41.9179 37.0427 37.623 36.8341 35.6762 35.99C35.0638 32.1928 36.0902 29.8435 38.2699 29.7449C39.61 27.3331 40.4472 25.7916 40.4472 25.7916C40.4472 25.7916 39.7424 25.616 38.678 25.5979C36.8442 25.5667 33.9436 26.0041 31.7433 28.6195C28.2668 32.7512 29.9617 37.9219 32.6232 40.5359C37.0602 42.0992 44.1529 43.8432 44.75 43.8533C45.347 43.8635 47.2636 42.5822 47.2636 42.5822L48.5089 25.0069L48.6395 17.3177C48.6395 17.3177 42.7368 16.7942 38.4454 16.7213Z" fill="#36B208"/>
<path d="M26.042 3.96639C26.042 3.96639 7.02353 12.8566 6.29468 13.9221C5.56582 14.9877 3.82987 23.9488 3.9815 25.3523C4.20575 27.4294 8.52505 40.9584 9.86969 42.3586C10.3652 42.8742 13.7812 45.6057 15.2248 45.6052C20.9433 45.6065 27.9383 42.2526 27.9383 42.2526C27.9383 42.2526 27.8252 27.6389 30.3274 19.0594C23.9327 20.6746 17.374 23.6068 17.374 23.6068L18.6116 28.6989L21.4868 27.3277L21.0798 33.4065C21.0798 33.4065 17.2581 33.4654 16.6119 33.0489C15.9658 32.6325 13.9795 21.5186 13.9795 21.5186C13.9795 21.5186 15.5612 17.9946 16.1752 17.7013C16.7892 17.4079 27.1124 13.5252 27.1124 13.5252L26.045 3.96349L26.042 3.96639Z" fill="#BFF816"/>
<path d="M25.5463 4.8496L26.4717 13.1378C24.345 13.9378 16.4837 16.9009 15.9158 17.1729C15.6244 17.3125 15.2273 17.6862 14.3184 19.4535C13.8441 20.3744 13.4534 21.2437 13.438 21.2803L13.3629 21.4472L13.3952 21.6261C13.4007 21.6542 13.9004 24.4438 14.472 27.2494C15.6767 33.1535 16.002 33.3625 16.2894 33.5488C16.4746 33.6684 16.9078 33.9471 19.8001 33.9962C20.5195 34.0084 21.0638 34 21.0874 34.0004L21.6302 33.9919L21.666 33.4499L22.073 27.3711L22.1402 26.3651L21.2304 26.7994L19.0108 27.8588L18.0612 23.9527C19.5466 23.3143 24.4846 21.2556 29.486 19.8926C27.4477 27.8149 27.3454 39.5701 27.3445 41.8793C26.7263 42.1578 25.3061 42.7722 23.5189 43.3803C20.3628 44.4533 17.4939 45.0195 15.223 45.0192L15.2127 45.0191C14.082 44.9999 10.8822 42.567 10.2924 41.9538C9.90555 41.5506 8.82762 39.2068 7.06229 33.9258C5.76564 30.0477 4.66956 26.2556 4.565 25.2924C4.51278 24.8078 4.78228 22.658 5.38379 19.6276C5.98535 16.5943 6.53144 14.6556 6.76795 14.2747C7.00042 14.0442 8.47236 13.0724 16.8836 8.98615C20.4878 7.23509 24.042 5.55692 25.5433 4.8525M26.0421 3.96589C26.0421 3.96589 7.02356 12.8561 6.2947 13.9216C5.56584 14.9872 3.82989 23.9483 3.98153 25.3518C4.20577 27.4289 8.52507 40.958 9.86972 42.3581C10.3623 42.8722 13.7507 45.5796 15.2042 45.6043C15.2101 45.6044 15.2175 45.6046 15.2234 45.6047C20.9419 45.606 27.9368 42.2521 27.9368 42.2521C27.9368 42.2521 27.8238 27.6384 30.326 19.0589C23.9312 20.6741 17.3725 23.6062 17.3725 23.6062L18.6102 28.6999L21.4853 27.3287L21.0783 33.4074C21.0783 33.4074 20.5281 33.4158 19.8102 33.4036C18.6353 33.3836 17.0101 33.3088 16.609 33.0499C15.9628 32.6334 13.9766 21.5195 13.9766 21.5195C13.9766 21.5195 15.5582 17.9955 16.1722 17.7022C16.7862 17.4089 27.1095 13.5262 27.1095 13.5262L26.0421 3.96442L26.0421 3.96589Z" fill="#36B208"/>
<path d="M26.0441 3.96638L27.1115 13.5281C27.1115 13.5281 16.7867 17.4108 16.1742 17.7042C15.5602 17.9975 13.9786 21.5215 13.9786 21.5215C13.9786 21.5215 15.9663 32.6339 16.611 33.0518C17.0121 33.3108 18.6373 33.3856 19.8122 33.4056C20.5301 33.4178 21.0803 33.4094 21.0803 33.4094L21.4873 27.3307L18.6121 28.7018L17.3745 23.6082C17.3745 23.6082 23.9332 20.6761 30.3279 19.0609C27.8258 27.6404 27.9388 42.2541 27.9388 42.2541C27.9388 42.2541 20.9438 45.6079 15.2254 45.6066C15.2195 45.6065 15.2121 45.6064 15.2062 45.6063C13.7527 45.5816 10.3643 42.8727 9.87169 42.36C8.52853 40.9599 4.20775 27.4308 3.98351 25.3537C3.8319 23.9488 5.56782 14.9892 6.29668 13.9236C7.02554 12.8581 26.0426 3.96783 26.0426 3.96783M26.5383 3.08412L25.7936 3.43274C25.746 3.45553 20.9791 5.68377 16.1854 8.01477C6.35272 12.795 6.00034 13.3125 5.80982 13.5909C5.26994 14.3825 4.52572 17.9147 4.23215 19.3976C3.78869 21.6315 3.30412 24.5489 3.39701 25.4175C3.52559 26.6156 4.80818 30.8872 5.94761 34.2981C6.87238 37.0639 8.5563 41.8422 9.44449 42.7686C9.88933 43.2318 13.4463 46.1662 15.1947 46.1959L15.2242 46.1964C21.0105 46.1974 27.9023 42.9259 28.1922 42.7863L28.5297 42.6239L28.5272 42.2493C28.5279 42.2125 28.503 38.555 28.7826 33.9015C29.1523 27.7646 29.8814 22.6897 30.8929 19.2253L31.181 18.2363L30.1813 18.4892C23.8103 20.0989 17.1969 23.0404 17.1315 23.0703L16.6827 23.2706L16.7985 23.7474L18.0362 28.841L18.207 29.5473L18.8626 29.234L20.828 28.2971L20.524 32.8234C20.3249 32.823 20.0816 32.8218 19.8178 32.8173C17.8379 32.7837 17.1841 32.6428 16.9906 32.5805C16.5629 31.7121 15.4566 26.4408 14.5862 21.5996C15.251 20.1393 16.1269 18.4923 16.4455 18.2278C17.0339 17.9636 23.2317 15.6166 27.3144 14.0816L27.7433 13.9208L27.6921 13.4642L26.6247 3.90251L26.5339 3.08552L26.5383 3.08412Z" fill="white"/>
<path d="M66.0834 14.5962C61.6407 16.1442 52.6488 19.7782 51.2847 20.5661C50.8487 26.4423 50.7549 39.9466 53.0232 45.7419C56.0243 44.2476 59.7275 41.8759 59.7275 41.8759C59.7275 41.8759 58.6389 30.6991 58.4964 24.6789C60.566 23.7673 63.804 22.74 63.804 22.74L64.9223 26.0046L63.9795 37.7559C63.9795 37.7559 66.065 42.3316 66.359 42.9072C66.6544 43.4814 70.7144 39.2903 70.7144 39.2903C70.7144 39.2903 72.1316 27.4807 72.1362 27.2095C72.1408 26.9382 75.3064 23.7464 75.3064 23.7464L78.5971 25.0867C78.5971 25.0867 76.4601 39.8598 75.9007 42.7582C75.3412 45.6566 75.1977 46.1187 75.1977 46.1187C75.1977 46.1187 81.5033 45.1537 83.5547 43.8349C84.8412 35.8099 86.5916 22.0905 86.3043 21.2952C86.017 20.4999 77.4758 16.0062 76.3589 15.7838C75.2435 15.5613 69.4665 22.5649 69.4665 22.5649L66.0835 14.5947L66.0834 14.5962Z" fill="#BFF816"/>
<path d="M87.8043 10.9085C88.1638 19.4348 88.0277 34.6489 86.7257 44.9725C93.7308 43.9753 102.514 40.4734 104.163 38.9796C105.812 37.4858 108.952 28.0384 108.847 25.1287C108.742 22.219 101.444 17.8526 101.444 17.8526L94.1926 22.7828L95.4838 8.40088L87.8043 10.9085Z" fill="#BFF816"/>
<path d="M95.4854 8.39999L94.1941 22.7819L101.446 17.8517C101.446 17.8517 108.743 22.2181 108.849 25.1278C108.954 28.0375 105.812 37.4849 104.164 38.9787C102.516 40.4725 93.7324 43.9744 86.7273 44.9716C88.0293 34.6465 88.1654 19.4339 87.8059 10.9076L95.4854 8.39999ZM95.4954 7.81032C95.4306 7.80922 95.3655 7.81844 95.3018 7.83947L87.6222 10.3471C87.3716 10.4298 87.2054 10.6688 87.2156 10.9329C87.6041 20.1809 87.3603 35.2279 86.1417 44.8983C86.1194 45.0808 86.1827 45.2632 86.3132 45.3922C86.422 45.4988 86.5669 45.5588 86.7173 45.5613C86.7483 45.5618 86.7793 45.5594 86.8103 45.5555C91.1162 44.943 95.4537 43.5141 97.6556 42.7154C101.007 41.5012 103.654 40.2367 104.56 39.4145C105.803 38.2884 107.295 34.0448 107.722 32.7706C108.592 30.1813 109.498 26.808 109.437 25.1053C109.386 23.6992 108.089 22.0079 105.473 19.9359C103.627 18.4741 101.824 17.3906 101.748 17.3451C101.657 17.2905 101.556 17.2637 101.456 17.262C101.337 17.26 101.216 17.2948 101.114 17.3638L94.8926 21.5935L96.0729 8.45273C96.091 8.25544 96.0073 8.06232 95.8531 7.93879C95.7498 7.8574 95.6237 7.8125 95.4954 7.81032Z" fill="white"/>
<path d="M94.4991 36.5868C94.3929 36.585 94.2873 36.5537 94.1939 36.4961C94.0217 36.387 93.9173 36.1965 93.9193 35.9916C93.9204 35.9311 93.9783 29.9172 94.0613 27.6374C94.0689 27.4473 94.1663 27.2706 94.3258 27.1671L98.9309 24.1354C99.0323 24.0678 99.1494 24.0359 99.2643 24.0379C99.4073 24.0403 99.548 24.0943 99.6568 24.1964C102.666 27.0124 102.607 27.5953 102.582 27.8427C102.526 28.4065 101.049 32.062 100.417 33.6069C100.362 33.7417 100.26 33.8505 100.129 33.9132L94.7641 36.5265C94.6793 36.5678 94.5875 36.5869 94.4962 36.5853L94.4991 36.5868Z" fill="#181818"/>
<path d="M99.2542 24.6276C99.2542 24.6276 102.05 27.2453 101.996 27.7856C101.942 28.3259 99.8723 33.3854 99.8723 33.3854L94.5075 35.9987C94.5075 35.9987 94.5644 29.9583 94.6492 27.6608L99.2542 24.6276ZM99.2743 23.4483C99.0428 23.4444 98.8102 23.5082 98.6059 23.6419L94.0009 26.6751C93.6817 26.885 93.4855 27.2355 93.4702 27.6172C93.3871 29.9043 93.3308 35.7398 93.328 35.9875C93.324 36.3959 93.5314 36.7769 93.8771 36.9966C94.0624 37.1133 94.2737 37.1759 94.4874 37.1795C94.6702 37.1826 94.8538 37.143 95.0248 37.0604L100.389 34.4471C100.65 34.3203 100.855 34.1011 100.965 33.8331C103.099 28.6154 103.153 28.081 103.171 27.9044C103.239 27.2302 102.848 26.5968 101.498 25.1892C100.792 24.4532 100.091 23.7954 100.062 23.7684C99.843 23.5627 99.5602 23.4546 99.2757 23.4498L99.2743 23.4483Z" fill="#36B208"/>
<path d="M94.506 36.2924C94.453 36.2915 94.4001 36.2759 94.3534 36.2471C94.2674 36.1925 94.2144 36.0973 94.2162 35.9955C94.2172 35.9351 94.275 29.9256 94.3579 27.6503C94.361 27.5545 94.4112 27.4668 94.4902 27.4151L99.0953 24.3834C99.146 24.3503 99.2052 24.3337 99.2627 24.3346C99.3335 24.3358 99.4038 24.3621 99.459 24.4146C100.783 25.6537 102.35 27.2507 102.293 27.816C102.238 28.371 100.497 32.6458 100.148 33.4981C100.12 33.5654 100.069 33.6191 100.004 33.6519L94.6392 36.2652C94.5961 36.2851 94.5502 36.2961 94.5045 36.2954L94.506 36.2924Z" fill="#181818"/>
<path d="M99.2563 24.6275C99.2563 24.6275 102.052 27.2453 101.998 27.7855C101.944 28.3258 99.8743 33.3854 99.8743 33.3854L94.5096 35.9986C94.5096 35.9986 94.5665 29.9582 94.6512 27.6607L99.2563 24.6275ZM99.2663 24.0379C99.1513 24.0359 99.0343 24.0679 98.9314 24.1354L94.3263 27.1686C94.1667 27.2735 94.0679 27.4488 94.0617 27.6389C93.9788 29.9187 93.9208 35.9326 93.9198 35.993C93.9178 36.198 94.0222 36.3885 94.1944 36.4976C94.2877 36.5567 94.3934 36.5865 94.4995 36.5883C94.5909 36.5899 94.6827 36.5708 94.7674 36.5295L100.132 33.9162C100.263 33.852 100.365 33.7432 100.419 33.6099C101.051 32.065 102.528 28.4109 102.584 27.8456C102.641 27.2833 101.933 26.4942 101.073 25.5977C100.377 24.8722 99.6878 24.2264 99.6588 24.1994C99.5484 24.0972 99.4078 24.0432 99.2663 24.0408L99.2663 24.0379Z" fill="white"/>
<path d="M95.7098 34.1007C95.7303 32.3758 95.7668 29.8755 95.8097 28.3087L99.1158 26.1309C99.796 26.8031 100.451 27.4999 100.745 27.8912C100.479 28.6845 99.7054 30.6635 98.9513 32.5205L95.7098 34.0993L95.7098 34.1007Z" fill="#181818"/>
<path d="M98.9566 27.6483C99.1232 27.8222 99.2753 27.9855 99.407 28.1322C99.0886 28.9954 98.5553 30.3532 98.0273 31.6581L96.9136 32.201C96.9296 31.0865 96.9496 29.9131 96.9717 28.955L98.9551 27.6497M99.2557 24.6275L94.6506 27.6607C94.5658 29.9581 94.5089 35.9986 94.5089 35.9986L99.8737 33.3853C99.8737 33.3853 101.943 28.3257 101.998 27.7855C102.053 27.2452 99.2557 24.6275 99.2557 24.6275Z" fill="#181818"/>
<path d="M111.101 18.6753C111.471 24.7672 112.182 35.8993 111.565 39.7817C110.948 43.6642 109.563 47.4569 109.563 47.4569L118.331 42.9402L117.806 18.1315L111.102 18.6753L111.101 18.6753Z" fill="#BFF816"/>
<path d="M124.683 7.41117C124.575 13.7634 124.093 18.2365 124.093 18.2365L120.782 19.2449L120.461 24.5819L124.057 24.3732C124.057 24.3732 124.235 33.3034 122.169 39.6916C129.219 42.855 135.912 38.9784 135.912 38.9784L136.642 31.8906C136.642 31.8906 131.267 33.7606 129.037 33.7227C129.724 29.1365 129.693 22.981 129.693 22.981L134.791 21.3778L135.624 16.1217L130.064 16.9032C130.064 16.9032 129.917 9.66481 129.833 6.61981C128.067 7.13098 124.681 7.41409 124.681 7.41409L124.683 7.41117Z" fill="#BFF816"/>
<path d="M66.084 14.5957L69.467 22.5659C69.467 22.5659 75.0814 15.7586 76.3094 15.7795C76.3271 15.7798 76.3433 15.7801 76.3594 15.7848C77.4749 16.0072 86.0161 20.5009 86.3049 21.2962C86.5922 22.0915 84.8417 35.8109 83.5552 43.8359C81.5038 45.1533 75.1982 46.1197 75.1982 46.1197C75.1982 46.1197 75.3417 45.6576 75.9012 42.7592C76.4606 39.8608 78.5976 25.0877 78.5976 25.0877L75.307 23.7474C75.307 23.7474 72.1413 26.9392 72.1367 27.2105C72.1321 27.4817 70.715 39.2913 70.715 39.2913C70.715 39.2913 67.1473 42.9732 66.4574 42.9615C66.4117 42.9607 66.378 42.9439 66.3595 42.9068C66.064 42.3325 63.98 37.7554 63.98 37.7554L64.9228 26.0041L63.8045 22.7395C63.8045 22.7395 60.5665 23.7669 58.4969 24.6784C58.6409 30.7002 59.7281 41.8754 59.7281 41.8754C59.7281 41.8754 56.0249 44.2471 53.0237 45.7415C50.7555 39.9446 50.8492 26.4404 51.2852 20.5656C52.6494 19.7778 61.6413 16.1438 66.084 14.5957ZM66.094 14.006C66.0262 14.0049 65.9582 14.0155 65.8899 14.0394C61.4532 15.5846 52.4019 19.2398 50.9901 20.0563C50.8218 20.1537 50.7112 20.3288 50.6976 20.5232C50.2729 26.2536 50.1468 40.011 52.4745 45.9578C52.5353 46.1122 52.6571 46.2337 52.8109 46.2938C52.8768 46.3185 52.9444 46.3314 53.0122 46.3326C53.1066 46.3342 53.1998 46.3137 53.2846 46.2709C56.2798 44.7793 60.0068 42.3963 60.044 42.3733C60.2304 42.2541 60.3343 42.0406 60.313 41.819C60.303 41.7097 59.2715 31.078 59.095 25.0631C60.5757 24.4409 62.5038 23.7865 63.4336 23.4808L64.3243 26.0809L63.3909 37.71C63.3833 37.8101 63.4008 37.9107 63.442 38.0013C63.5273 38.1886 65.5361 42.5964 65.8344 43.1765C65.9529 43.4071 66.182 43.5467 66.4474 43.5512C66.7864 43.5569 67.2829 43.4076 69.249 41.5609C70.226 40.6426 71.1296 39.7112 71.1386 39.7011C71.2286 39.6082 71.2852 39.4897 71.3006 39.3617C71.6992 36.0403 72.5911 28.5866 72.7134 27.381C72.9852 27.0022 74.2376 25.6757 75.45 24.4429L77.9483 25.4615C77.5827 27.9754 75.8183 40.0843 75.3221 42.6491C74.7885 45.4108 74.6396 45.9303 74.6334 45.9508C74.5726 46.1444 74.6177 46.3546 74.7507 46.5072C74.8606 46.6359 75.0202 46.7065 75.1867 46.7093C75.2206 46.7099 75.2546 46.7075 75.2886 46.7022C75.5518 46.6624 81.7422 45.7014 83.8742 44.3324C84.0158 44.2419 84.1112 44.0946 84.1376 43.9299C84.7661 40.0048 85.5208 34.6398 86.1051 29.9281C87.1147 21.801 86.9358 21.3069 86.8598 21.0962C86.7696 20.847 86.5823 20.3292 81.9241 17.8081C80.3913 16.9784 77.2808 15.3684 76.4754 15.2072C76.4254 15.1975 76.3739 15.1922 76.3209 15.1913C75.9803 15.1855 75.5031 15.3279 74.3274 16.3961C73.6953 16.9708 72.9106 17.7685 71.9941 18.7675C71.0716 19.7737 70.1961 20.7896 69.6349 21.451L66.6276 14.3675C66.534 14.1477 66.321 14.0114 66.094 14.0075L66.094 14.006Z" fill="white"/>
<path d="M117.807 18.1297L118.332 42.9384L109.564 47.4551C109.564 47.4551 110.948 43.6623 111.566 39.7799C112.183 35.8974 111.471 24.7654 111.102 18.6734L117.805 18.1296M117.817 17.54C117.798 17.5397 117.779 17.5394 117.759 17.542L111.056 18.0858C110.735 18.1113 110.494 18.3888 110.514 18.7092L110.557 19.4147C110.935 25.6233 111.568 36.0138 110.983 39.6874C110.383 43.4654 109.024 47.2158 109.01 47.2525C108.927 47.4811 108.992 47.7358 109.175 47.8967C109.282 47.9914 109.417 48.0409 109.554 48.0433C109.65 48.0449 109.746 48.0229 109.834 47.9772L118.602 43.4606C118.803 43.3578 118.926 43.149 118.921 42.9233L118.396 18.1146C118.392 17.9523 118.321 17.7978 118.201 17.6896C118.095 17.5934 117.957 17.5394 117.816 17.537L117.817 17.54Z" fill="white"/>
<path d="M129.834 6.61702C129.918 9.66201 130.065 16.9004 130.065 16.9004L135.624 16.1189L134.792 21.375L129.693 22.9797C129.693 22.9797 129.724 29.1337 129.037 33.7213C131.268 33.7592 136.642 31.8893 136.642 31.8893L135.913 38.9771C135.913 38.9771 132.406 41.0085 127.793 40.9301C126.034 40.9003 124.114 40.5639 122.168 39.6903C124.233 33.3006 124.056 24.3718 124.056 24.3718L120.46 24.5806L120.781 19.2436L124.092 18.2352C124.092 18.2352 124.574 13.762 124.682 7.40982C124.682 7.40982 128.068 7.12671 129.834 6.61554M129.844 6.02735C129.787 6.02637 129.728 6.03422 129.67 6.05093C127.98 6.53981 124.665 6.82118 124.631 6.82355C124.33 6.8494 124.096 7.09905 124.091 7.40126C124.002 12.6021 123.659 16.5718 123.542 17.7879L120.608 18.6817C120.372 18.7529 120.205 18.9639 120.19 19.2099L119.869 24.5469C119.859 24.7149 119.921 24.8796 120.04 24.9996C120.149 25.1091 120.295 25.1706 120.447 25.1731C120.462 25.1734 120.477 25.1736 120.491 25.1724L123.467 24.9988C123.461 27.1118 123.309 34.2433 121.606 39.5112C121.514 39.7972 121.652 40.1077 121.926 40.2303C123.758 41.0518 125.728 41.4864 127.781 41.5213C132.503 41.6015 136.057 39.5753 136.206 39.4894C136.37 39.3948 136.478 39.2271 136.497 39.0386L137.227 31.9508C137.248 31.7507 137.164 31.5531 137.005 31.428C136.902 31.3467 136.777 31.3032 136.649 31.3011C136.581 31.2999 136.512 31.3105 136.445 31.333C136.398 31.3499 132.09 32.8413 129.716 33.0958C130.205 29.341 130.27 24.8165 130.277 23.4143L134.965 21.9397C135.178 21.8726 135.335 21.6909 135.371 21.4689L136.204 16.2128C136.233 16.0275 136.173 15.8407 136.041 15.7072C135.932 15.5962 135.785 15.5333 135.63 15.5306C135.599 15.5301 135.568 15.5325 135.538 15.5364L130.638 16.2244C130.599 14.3628 130.488 9.07154 130.421 6.60192C130.417 6.419 130.327 6.24937 130.18 6.14217C130.081 6.06971 129.962 6.03083 129.843 6.0288L129.844 6.02735Z" fill="white"/>
<path d="M94.8163 9.24039L93.6051 22.7316C93.585 22.9583 93.6963 23.177 93.8934 23.2924C93.9825 23.3455 94.0823 23.3723 94.1825 23.374C94.3019 23.376 94.422 23.3412 94.5249 23.2721L101.46 18.5562C102.059 18.9306 103.408 19.8073 104.749 20.8697C107.754 23.2506 108.237 24.5742 108.258 25.1511C108.303 26.4053 107.639 29.3181 106.605 32.3987C105.572 35.4719 104.433 37.9416 103.768 38.5438C102.314 39.861 94.1945 43.153 87.4071 44.2719C88.6746 33.548 88.711 18.9914 88.4135 11.3302L94.8178 9.23894M95.4838 8.40088L87.8043 10.9085C88.1638 19.4348 88.0277 34.6489 86.7257 44.9725C93.7308 43.9753 102.514 40.4734 104.163 38.9796C105.812 37.4858 108.952 28.0383 108.847 25.1287C108.742 22.219 101.444 17.8526 101.444 17.8526L94.1926 22.7828L95.4838 8.40088Z" fill="#36B208"/>
<path d="M65.7602 15.3363L68.9277 22.7955C69.0086 22.9856 69.1818 23.1198 69.3862 23.1484C69.4113 23.1517 69.4363 23.1536 69.4614 23.1541C69.6397 23.1571 69.8106 23.0789 69.9266 22.9393C69.9401 22.9233 71.2725 21.3091 72.7571 19.6828C75.3265 16.8672 76.1329 16.44 76.3066 16.3766C76.8026 16.5177 78.7292 17.4234 81.1607 18.7314C84.0569 20.2891 85.4508 21.2241 85.7509 21.5241C85.8605 22.9711 84.3523 35.1035 83.0217 43.4699C81.3933 44.3653 77.6693 45.0939 75.9788 45.3911C76.0893 44.8784 76.2517 44.0863 76.4861 42.8708C77.0423 39.9915 79.1005 25.7745 79.1875 25.1714C79.2259 24.9037 79.077 24.6431 78.8266 24.5415L75.5359 23.2012C75.4671 23.1735 75.3951 23.159 75.3228 23.1578C75.1651 23.1551 75.0092 23.2159 74.8937 23.3319C74.8862 23.3406 74.0895 24.144 73.3028 24.9697C71.5852 26.7749 71.559 26.9293 71.5546 27.1887C71.5239 27.6026 70.7139 34.4014 70.1591 39.0223C68.891 40.3205 67.3866 41.7268 66.6853 42.2133C66.2241 41.2366 65.1947 38.9881 64.5848 37.6506L65.5162 26.0524C65.522 25.9714 65.5131 25.8902 65.4864 25.8145L64.368 22.5499C64.2851 22.3097 64.0621 22.1555 63.8204 22.1513C63.7584 22.1503 63.6949 22.1595 63.6326 22.1791C63.4992 22.2211 60.3397 23.2262 58.2657 24.1406C58.0473 24.2372 57.9079 24.456 57.9141 24.695C58.0413 30.0588 58.9261 39.6026 59.1138 41.5744C58.2463 42.12 55.6711 43.716 53.3592 44.9169C52.516 42.381 51.9579 38.3429 51.7377 33.1619C51.5344 28.3748 51.6627 23.7763 51.8584 20.9366C53.7085 20.0125 61.3065 16.9254 65.7661 15.3393M66.0869 14.5957C61.6442 16.1437 52.6523 19.7777 51.2881 20.5656C50.8521 26.4418 50.7584 39.9461 53.0266 45.7415C56.0278 44.2471 59.731 41.8754 59.731 41.8754C59.731 41.8754 58.6424 30.6986 58.4998 24.6784C60.5694 23.7668 63.8074 22.7395 63.8074 22.7395L64.9257 26.0041L63.9829 37.7554C63.9829 37.7554 66.0684 42.3311 66.3624 42.9067C66.381 42.9424 66.4146 42.9607 66.4603 42.9615C67.1502 42.9732 70.7178 39.2913 70.7178 39.2913C70.7178 39.2913 72.135 27.4817 72.1396 27.2105C72.1442 26.9392 75.3099 23.7474 75.3099 23.7474L78.6005 25.0877C78.6005 25.0877 76.4635 39.8608 75.9041 42.7592C75.3446 45.6576 75.2011 46.1196 75.2011 46.1196C75.2011 46.1196 81.5067 45.1547 83.5581 43.8359C84.8446 35.8109 86.5951 22.0914 86.3078 21.2962C86.0204 20.5009 77.4792 16.0072 76.3623 15.7848C76.3462 15.7815 76.33 15.7798 76.3123 15.7795C75.0843 15.7586 69.4699 22.5658 69.4699 22.5658L66.0869 14.5957Z" fill="#36B208"/>
<path d="M117.228 18.7695L117.731 42.584L110.583 46.267C111.049 44.8033 111.748 42.3718 112.144 39.8746C112.749 36.0731 112.111 25.6014 111.729 19.3456L111.721 19.2172L117.225 18.771M117.805 18.1305L111.101 18.6743C111.471 24.7663 112.182 35.8983 111.565 39.7807C110.948 43.6632 109.563 47.4559 109.563 47.4559L118.331 42.9393L117.806 18.1306L117.805 18.1305Z" fill="#36B208"/>
<path d="M129.264 7.36664C129.348 10.6697 129.474 16.8445 129.475 16.9123C129.478 17.0805 129.553 17.2396 129.683 17.3494C129.787 17.4382 129.919 17.4876 130.055 17.4899C130.086 17.4904 130.117 17.488 130.146 17.4841L134.916 16.8146L134.265 20.9235L129.514 22.4177C129.268 22.4946 129.1 22.7247 129.102 22.9828C129.101 23.0433 129.124 29.1455 128.452 33.6331C128.427 33.8008 128.476 33.9712 128.586 34.1014C128.695 34.2315 128.856 34.3065 129.026 34.3094C130.798 34.3395 134.32 33.2713 135.961 32.7373L135.357 38.6033C134.485 39.0457 131.503 40.4018 127.803 40.3389C126.088 40.3098 124.438 39.9794 122.89 39.3545C124.794 33.0018 124.653 24.7166 124.646 24.3581C124.643 24.1973 124.574 24.0458 124.457 23.9376C124.349 23.8385 124.21 23.783 124.066 23.7806C124.051 23.7803 124.036 23.7801 124.021 23.7813L121.089 23.9526L121.345 19.688L124.265 18.7998C124.492 18.7314 124.655 18.5336 124.679 18.2981C124.685 18.254 125.139 13.978 125.262 7.94748C126.134 7.86201 127.896 7.66487 129.265 7.36519M129.834 6.61691C128.068 7.12808 124.682 7.41119 124.682 7.41119C124.574 13.7634 124.092 18.2365 124.092 18.2365L120.781 19.2449L120.46 24.5819L124.056 24.3732C124.056 24.3732 124.234 33.302 122.167 39.6917C124.114 40.5653 126.034 40.9016 127.793 40.9315C132.404 41.0098 135.913 38.9785 135.913 38.9785L136.642 31.8907C136.642 31.8907 131.268 33.7606 129.037 33.7227C129.724 29.1366 129.693 22.9811 129.693 22.9811L134.792 21.3763L135.624 16.1203L130.065 16.9017C130.065 16.9017 129.918 9.66338 129.834 6.61838L129.834 6.61691Z" fill="#36B208"/>
<path d="M15.4946 43.0389C20.3311 42.2672 25.5488 40.3268 25.5488 40.3268L26.4476 35.1574L26.3465 41.1072C26.3465 41.1072 18.0887 44.2375 16.4167 44.3994C15.9302 43.6995 15.4931 43.0388 15.4931 43.0388L15.4946 43.0389Z" fill="#36B208"/>
<path d="M32.9299 38.4805C36.861 39.9673 45.3903 41.4305 47.0174 41.2222C46.9754 41.6948 47.0013 42.1686 47.0013 42.1686L46.3517 42.5631C46.3517 42.5631 35.096 40.3089 32.9299 38.4805Z" fill="#36B208"/>
<path d="M52.4638 42.9943C54.3224 42.4404 58.0869 41.0608 58.0869 41.0608L52.8082 43.9911L52.4639 42.9928L52.4638 42.9943Z" fill="#36B208"/>
<path d="M76.1612 43.2709L81.8606 42.219L83.6528 34.2011L82.2551 42.8671L75.8391 44.3477L76.1612 43.2709Z" fill="#36B208"/>
<path d="M87.0606 41.9773C90.1791 41.5599 98.8699 38.894 102.197 37.3004C103.379 36.7351 104.772 34.3242 104.772 34.3242C104.772 34.3242 103.361 37.7921 102.406 38.261C101.452 38.7314 90.5024 42.316 87.0433 42.9945C87.0231 42.3601 87.0606 41.9773 87.0606 41.9773Z" fill="#36B208"/>
<path d="M111.051 43.6957C112.515 43.0777 116.573 41.119 116.573 41.119L116.732 39.7356L116.935 41.7681L110.588 45.1772L111.052 43.6972L111.051 43.6957Z" fill="#36B208"/>
<path d="M135.706 37.1486C133.524 38.1939 127.496 38.7669 124.969 38.2506C125.123 37.1369 125.006 36.0541 125.006 36.0541C125.006 36.0541 124.531 38.1429 124.252 38.6115C126.268 39.3565 132.798 39.0943 135.692 37.893C135.766 37.5566 135.705 37.1501 135.705 37.1501L135.706 37.1486Z" fill="#36B208"/>
<path d="M12.1004 43.6832L15.4926 43.0389L16.4162 44.3994L14.8338 44.6645L13.482 44.6415L12.1004 43.6832Z" fill="#36B208"/>
</g>
<path d="M113.352 12.3542C115.753 12.395 117.732 10.4819 117.773 8.08131C117.813 5.68069 115.9 3.70154 113.5 3.66076C111.099 3.61997 109.12 5.533 109.079 7.93363C109.038 10.3342 110.951 12.3134 113.352 12.3542Z" fill="#3C169A" stroke="#231F20" stroke-width="0.218412" stroke-miterlimit="10"/>
<path d="M109.079 7.93363C109.065 8.78484 109.296 9.58297 109.708 10.261C110.358 10.7085 111.141 10.976 111.989 10.9904C114.281 11.0294 116.171 9.20282 116.21 6.91064C116.229 5.77783 115.793 4.74353 115.069 3.98193C114.585 3.78361 114.055 3.67019 113.5 3.66076C111.099 3.61997 109.12 5.53293 109.079 7.93363Z" fill="#A763FF"/>
<path d="M114.383 4.54603C112.471 4.41141 110.693 5.79556 110.188 7.6067C110.015 8.2056 109.987 8.84589 110.064 9.49071C109.835 8.8749 109.782 8.18973 109.908 7.54011C110.26 5.5757 112.396 3.95396 114.383 4.54603L114.383 4.54603Z" fill="white"/>
<path d="M117.712 8.72959C117.467 8.54543 117.248 8.41574 117.073 8.32345C116.445 8.76348 115.657 9.7078 115.657 9.7078C115.956 10.2364 116.235 10.7157 116.513 11.068C117.13 10.4451 117.561 9.63573 117.712 8.72959Z" fill="#D6C0E2" stroke="#231F20" stroke-width="0.218412" stroke-linejoin="round"/>
<path d="M114.903 3.91797C114.959 4.50152 115.025 5.02295 115.155 5.41631C115.979 5.55213 116.439 5.63186 116.837 5.59465C116.876 5.54814 116.913 5.50342 116.949 5.4596C116.442 4.76031 115.732 4.2174 114.904 3.91843L114.903 3.91797Z" fill="#D6C0E2" stroke="#231F20" stroke-width="0.218412" stroke-linejoin="round"/>
<path d="M114.903 3.91797C114.959 4.50152 115.025 5.0225 115.155 5.41585C115.494 5.47152 115.77 5.5179 116.007 5.55032C115.813 4.95848 115.49 4.42398 115.071 3.98219C115.069 3.9817 115.067 3.98076 115.066 3.98028C115.012 3.9583 114.958 3.93814 114.904 3.91843L114.903 3.91797Z" fill="white"/>
<path d="M114.903 3.91797C114.959 4.50152 115.025 5.02295 115.155 5.41631C115.979 5.55213 116.439 5.63186 116.837 5.59465C116.876 5.54814 116.913 5.50342 116.949 5.4596C116.442 4.76031 115.732 4.2174 114.904 3.91843L114.903 3.91797Z" stroke="#231F20" stroke-width="0.218412" stroke-linejoin="round"/>
<path d="M113.352 12.3542C115.753 12.395 117.732 10.4819 117.773 8.08131C117.813 5.68069 115.9 3.70154 113.5 3.66076C111.099 3.61997 109.12 5.533 109.079 7.93363C109.038 10.3342 110.951 12.3134 113.352 12.3542Z" stroke="#231F20" stroke-width="0.218412" stroke-miterlimit="10"/>
<path d="M112.981 6.92614C113.612 6.29975 114.318 5.769 115.048 5.26706L115.261 5.56518C114.925 5.82741 114.593 6.10712 114.275 6.39302C113.961 6.6776 113.654 6.9756 113.378 7.29334L112.981 6.92614Z" fill="#231F20"/>
<path d="M113.301 8.76172C114.328 9.31138 115.658 9.70726 115.658 9.70726" stroke="#231F20" stroke-width="0.218412" stroke-linejoin="round"/>
<path d="M116.955 8.30162C117.042 7.67195 116.964 7.0248 116.855 6.40051C116.817 6.19009 116.772 5.98047 116.719 5.77621L117.075 5.69158C117.207 6.34603 117.281 7.00729 117.264 7.6748C117.257 7.89773 117.238 8.12183 117.193 8.34458L116.955 8.30161L116.955 8.30162Z" fill="#231F20"/>
<path d="M112.012 9.58691C112.037 10.6028 112.34 11.742 112.976 12.2007" stroke="#231F20" stroke-width="0.218412" stroke-linejoin="round"/>
<path d="M110.743 8.60695C110.231 8.8497 109.547 9.54527 109.547 9.54527" stroke="#231F20" stroke-width="0.218412" stroke-linejoin="round"/>
<path d="M111.145 6.96262C110.7 5.97261 110.681 5.08922 110.924 4.53366" stroke="#231F20" stroke-width="0.218412" stroke-linejoin="round"/>
<path d="M111.206 6.9761C110.985 7.63051 110.793 8.22221 110.736 8.69758C111.343 9.17692 111.682 9.44878 112.016 9.58773C112.665 9.26258 112.985 9.00923 113.304 8.76228C113.366 8.02134 113.27 7.46643 113.181 7.10996C112.435 6.93514 111.206 6.9761 111.206 6.9761Z" fill="white"/>
<path d="M111.314 7.12323C111.327 7.14269 111.339 7.14655 111.337 7.15614C111.336 7.16253 111.327 7.18619 111.325 7.19348C111.162 7.68813 110.983 8.20906 110.916 8.71953L110.847 8.55393C111.242 8.8533 111.642 9.21965 112.084 9.41862L111.932 9.42382C112.156 9.31128 112.374 9.19133 112.582 9.05746C112.792 8.92452 112.988 8.77488 113.19 8.61755L113.12 8.74735C113.136 8.21494 113.076 7.68171 112.92 7.17525C112.919 7.1734 113.119 7.37145 113.119 7.37099C112.974 7.33097 112.82 7.30041 112.663 7.27485C112.205 7.2034 111.735 7.17297 111.271 7.16051C111.263 7.16084 111.232 7.15939 111.225 7.15972C111.255 7.15932 111.292 7.14437 111.314 7.12323ZM111.095 6.82913C111.143 6.79558 111.206 6.7907 111.263 6.78892C111.748 6.76053 112.233 6.75089 112.719 6.78434C112.891 6.79733 113.063 6.81584 113.241 6.8491C113.344 6.86825 113.42 6.94786 113.44 7.04438C113.555 7.61885 113.561 8.21072 113.484 8.78698C113.478 8.83633 113.452 8.87894 113.415 8.90717C113.214 9.06315 113.003 9.224 112.781 9.36541C112.559 9.50821 112.329 9.63437 112.096 9.75134C112.047 9.77615 111.991 9.77612 111.944 9.75655C111.811 9.70023 111.687 9.6308 111.572 9.55648C111.238 9.33782 110.932 9.08393 110.621 8.84139C110.569 8.80066 110.545 8.73704 110.553 8.6758C110.624 8.13517 110.794 7.63973 110.96 7.13003C110.992 7.02706 111.033 6.91509 111.095 6.82913Z" fill="#231F20"/>
<defs>
<clipPath id="clip0_255_1587">
<rect width="139.835" height="49.1427" fill="white" transform="translate(0.868652) rotate(0.97325)"/>
</clipPath>
</defs>
</svg>
